<?xml version="1.0" standalone="yes"?>
<svg width="474" height="266">
<path style="fill:#0d2726; stroke:none;" d="M0 0L0 116L27 117L46 113L40 102L50 102L48 107L63 114L67 113L72 117L72 110C76.925 109.881 79.8982 109.162 81 104L94 103L88 100L88 97L97 96L98 78C85.8368 75.0961 82.6148 77.3008 72 82L72 81C76.4069 78.3832 85.715 70.0013 80 65L80 64L88 64L88 60C91.6957 59.8821 94.8643 59.8823 96 56L104 56L104 42L96 42L96 26L104 26L104 30L114 30L114 31L112 31L112 32C119.971 32 137.646 27.3609 142 35L161 32L158 36L163 35L160 42L175 44L174 39L189 40L191 45L187 45L188 49L195 51L197 51C202.217 46.075 223.018 44.0334 219 56L224 56L224 50L230 51C241.741 32.3675 220.338 27.2809 206 22L206 21L236 20.4275L261 20L261 21L259 21L259 22L275 20L272 38L264 40L264 42L280 40L280 48L289 48L288 45L301 45L301 56L304 56C305.701 66.3274 321.939 67.5935 329.196 62.1073C334.614 58.0109 337.31 50.0241 344 48C346.071 41.2246 353.978 39.3582 360 37L357 33L357 32L371 30C371.009 32.6874 371.562 42.475 376 38L387 40L384 42L384 48L381 48L381 56C377.649 56.728 376.588 57.597 376 61L383 64C391.764 58.0285 396.034 51.0991 408 51L406 64C413.16 63.5202 415.914 64.3503 416 72L408 73L408 74L410 75L410 76L408 76L408 78L420 77L419 80L424 81L435 71L433 80L434 88L442 88L441 97L437 96L437 104L435 104L435 96L433 96L433 104L432 104L431 102L431 120L435 120L435 121L432 123L436 123C430.475 128.984 420.506 126.275 419 136L422 136L422 144L432 144L432 143L428 139L448 140C446.997 152.709 446.713 165.45 446.737 177.999C446.752 186.016 441.294 187.133 448 194L434 192L434 188L437 188L440 180L431 181C431 177.056 425.611 173.943 425 177L424 177C424.785 172.077 427.275 171.154 432 171L427 151L417 153L419 163C411.263 161.158 402.735 165.183 400 173L393 175L393 176L397 176L396 179L403 179L403 180L396 181L396 183L401 183L400 192C403.498 193.928 403.875 196.122 404 200L410 200L410 205L414 200L415 200L415 208L410 208L413 212C410.376 213.671 404.198 220.888 408 223L408 224L401 224L401 226C405.816 226.983 407.629 229.121 408 234L404 234C405.426 238.4 408.705 238.8 413 239L413 240L406 241C408.778 245.175 410.9 246.834 416 247L416 243L420 243L419 237L411 235L411 234L424 234L424 238L437.834 236.532L446.004 241.411L457 245C448.409 245 420.61 241.048 419 252L404 248L408 248C400.183 237.716 385.227 243.679 375 245L375 247L380 248L380 249L373 248L372 248L360 246L360 247C363.336 249.956 363.093 251.934 360 255L363 259L376 260L376 264C401.068 269.587 423.049 260 448 260L448 253L474 253L474 0L0 0z"/>
<path style="fill:#4a4327; stroke:none;" d="M213 22L213 23L262 23L262 24C255.171 25.0039 247.845 25.7953 244 32L243 32L240 30L237 33L239 40C241.686 39.5034 256.042 33.7591 248 32L248 31L272 22L272 21L259 22L259 21L261 21L247.001 21.9954L213 22z"/>
<path style="fill:#17413f; stroke:none;" d="M265 21L265 22L272 21L272 22L248 31L248 32L251 32C247.263 38.5749 241.524 38.8289 235 41L238 44L244 42L238 49L238 50C243.902 57.7716 241.659 61.9173 252 55L251 60L264 65L262 71L280 70L276 75L276 77L279 80L280 80C283.218 78.1532 286.009 78.8957 288 82L300 81L298 90L304 90L305 90L304 85L307 80C312.655 80.1802 315.736 82.488 319 87L315 92L316 92L322 89L322 93C317.601 94.4539 316.426 97.5662 317 102L319 102L324 94C333.524 93.2493 335.618 78.734 344 74L343 78L355 76L352 78L352.067 88.3966L364 96L368 98L371 96L374 99L373 106L374 106L381 99L381 93L385 91C386.202 98.7198 378.384 106.395 372 110L372 111L376 111L377 122L382 122C381.142 136.03 374.153 145.948 359 146C354.224 154.892 341.041 157.985 332 160C330.437 164.339 327.421 166.791 323 168C323.618 172.914 325.342 176.071 330 178L330 179L325 179L325 180L331 180L331 176L338 178L338 182L342 181L340 185L348 183L360 170L364 172L369 168L366 174L373 176L373 172C387.015 169.453 392 156.981 392 144L400 144L400 139L410 138L409 135C415.583 134.088 432.666 128.454 436 123L432 123L435 121L435 120L431 120L432 104L433 104L433 96L435 96L435 104L437 104L437 96L441 97L442 88L434 88L433 80L435 71C429.494 72.1456 426.38 76.0953 424 81L418 79L415 85L420 85L420 88L416 88L416 89L427 89L424 95L424 98L427 98L428 106L420 104L418 107L414 102L414 105L413 105C407.713 101.445 389.351 108.492 384 112L390 105L389 100C394.619 99.0706 396.313 93.1656 397 88L401 88L401 85C406.562 84.9344 410.301 83.2041 414 79L408 78L408 74L408 73L416 72C415.973 64.3311 413.52 63.0395 406 64L408 51C396.43 51.0319 390.7 56.3875 383 64L376 61L381 56L381 48L384 48L387 40L376 38C371.189 39.8111 371.041 33.4779 371 30L357 32L357 33L360 37C353.846 38.5284 345.176 40.9994 344 48C336.896 49.1957 333.892 58.009 328.385 62.1073C320.855 67.711 306.796 65.4476 304 56L301 56L301 45L288 45L289 48L280 48L280 40L264 42L264 40L272 38L275 20L265 21z"/>
<path style="fill:#6d6a47; stroke:none;" d="M206 21L206 22L213 23L213 22L206 21z"/>
<path style="fill:#a2997c; stroke:none;" d="M211 23L211 24L219 25L211 23z"/>
<path style="fill:#8c7c58; stroke:none;" d="M256 23L256 24L262 24L256 23z"/>
<path style="fill:#727155; stroke:none;" d="M211 24L211 25L216 25L211 24z"/>
<path style="fill:#665623; stroke:none;" d="M213 25L213 26C221.206 28.6295 230.874 30.1546 234 39L235 39L236 34L224 25L236 25L213 25z"/>
<path style="fill:#b29d70; stroke:none;" d="M246 26L246 27L258 25L246 26z"/>
<path style="fill:#cdaf69; stroke:none;" d="M224 25L228 28L243 26L239 32L240 32L244 32L244 25L224 25z"/>
<path style="fill:#9b7939; stroke:none;" d="M244 25L244 31L245 31L247 25L244 25z"/>
<path style="fill:#113d3c; stroke:none;" d="M96 26L96 42L104 42L104 56L96 56L88 60L88 64L80 64L80 65C84.355 70.8785 76.2725 77.2129 72 81L72 82L82.0008 76.3488L98 78L97 96L88 97L88 100L94 103L81 104C79.3494 108.589 76.7307 109.74 72 110L72 117L67 113L63 114C59.5773 109.79 53.2606 107.685 48 107L50 102L40 102L46 113L27 117L0 116L0 130L9 130L9 134L13 131L16 133L18 130L27.1073 142.171L22 155L30 155L36 142L44 143L47 146L46 156L54 161L51 165L58 164L62 185L78 185C78 181.668 81.1072 175.429 82 179L83 179L90 166L94 166L95.8395 144.09L105 125L108 125L110 129L109 127L112 128L112 124L116 124L116 121C107.679 121.063 104.033 121.414 104 112L98 108L110 110L107 104L100 104L100 101L106 100L107 97L107 96L103 96L102 90L103 84L107 88L111 88C110.503 83.6824 109.067 82.3487 105 81L106 78L96 75L99 71C99.3135 63.8868 104.966 66.3905 110 67C111.348 59.8473 111.962 56.0952 120 56L120 64L134 64C136.318 60.032 139.682 60.0391 144 60L144 56L158 54L159 54C160.881 56.5698 162.768 54.6 165 53L164 48L170 48L168 45L185 48C183.208 45.1803 180.944 42.3958 184 40L184 39L174 39L175 44L160 42L163 35L158 36L161 32C153.608 29.82 148.835 33.2263 142 35C139.221 26.8919 119.324 32 112 32L112 31L114 31L114 30L104 30L104 26L96 26z"/>
<path style="fill:#f4f4ac; stroke:none;" d="M228 26L228 27L238 28L237 32L243 26L228 26z"/>
<path style="fill:#f0d682; stroke:none;" d="M228 27C230.761 31.283 235.066 32.7194 238 28L228 27z"/>
<path style="fill:#bb8b4b; stroke:none;" d="M233 32L233 33L236 37L239 36L239 32L233 32z"/>
<path style="fill:#8a6433; stroke:none;" d="M235 36L234 41L239 41L239 36L235 36z"/>
<path style="fill:#2a4846; stroke:none;" d="M181 40L185 48L168 45L170 48L164 48L165 53L159 54L158 54L144 56L144 60C139.762 60.0122 135.594 59.4672 134 64L120 64L120 56C111.701 56.0294 110.981 59.2808 110 67C105.2 66.0152 97.8758 63.301 99 71L96 75L106 78L105 81L111 88L107 88L103 84L102 90L103 96L107 96L107 97L106 100L100 101L100 104L107 104L110 110L98 108L104 112C104.006 119.648 105.032 121.936 113 121L111 104C118.249 105.285 121.776 103.725 122 113L126 112L124 104L128 104C128.787 96.9574 135.426 93.2936 142 92L146 84L157 97L159 95L160 89L156 88L156 87L162 87L160 83C164.527 83.5565 167.398 84.2279 170 80L160 78L162 72L168 72L169 72C169.741 75.4571 172.259 75.4571 173 72L176 74C180.035 67.9339 195.101 62.4432 200 70L205 64L215 65L215 64L213 64L213 63C216.054 62.3456 215.936 60.9934 216 58C220.095 58.275 222.815 58.866 225 55L231 58L232 48L231 48L230 51L224 50L224 56L219 56C223.56 44.1377 201.351 44.9664 197 51L195 51C192.942 48.1745 191.337 48.2939 188 49L187 45L191 45L189 40L181 40z"/>
<path style="fill:#9c8a66; stroke:none;" d="M234 41L234 46C236.146 43.8484 236.46 42.9243 234 41z"/>
<path style="fill:#625239; stroke:none;" d="M236 44L239 63L240 63L241 61C243.494 65.407 249.299 65.9156 254 67L254 62C241.74 62.2098 244.935 56.0498 238 50L238 49L244 42L236 44z"/>
<path style="fill:#fddeb0; stroke:none;" d="M235.333 45.6667L235.667 46.3333L235.333 45.6667z"/>
<path style="fill:#917148; stroke:none;" d="M236 45L237 51L236 45z"/>
<path style="fill:#414d43; stroke:none;" d="M232 46L231 58L225 55L216 58L213 63L213 64L215 64L215 65L205 64L200 70C198.206 61.6269 178.269 67.7813 176 74L173 72C171.444 74.3259 170.556 74.3259 169 72L168 72L167 74L166 74L162 72L160 78L170 80C166.823 83.4405 164.489 83.3015 160 83L162 87L156 87L156 88L160 89L157 97L146 84L142 92C134.973 92.7785 128.407 96.6001 128 104L124 104L126 112L122 113C121.915 103.608 118.982 104.268 111 104L119 117L121 117L128 114L128 110L137 112L133 121L139 121L142 124L145 118L142 116L147 116L147 107L141 109L142 104L143 95L152 99L152 97C155.985 99.3232 158.667 99.4266 163 98L172.83 104.189L183 114C192.416 107.128 198.862 95.2765 201 84L209 79L208 75L215 73L215 69L219 70L232 59L229 63L229 64L234 64L233 51L235 46L232 46z"/>
<path style="fill:#997541; stroke:none;" d="M233 51L234 55L235 55L233 51z"/>
<path style="fill:#dfba85; stroke:none;" d="M235 51L235 54L237 54L237 51L235 51z"/>
<path style="fill:#ffffd6; stroke:none;" d="M235 54L235 62C238.13 59.7421 238.026 57.5798 237 54L235 54z"/>
<path style="fill:#d3cba6; stroke:none;" d="M237 54L238 59L239 59L237 54z"/>
<path style="fill:#978a68; stroke:none;" d="M233 55L233 59L234 59L233 55z"/>
<path style="fill:#40413b; stroke:none;" d="M251 55L244 61L244 62L254 62C255.268 70.4051 261.123 72.974 266.442 78.804C271.109 83.9195 273.941 90.5606 276 97L279 96C282.079 105.286 293.99 109.702 301 102L296 101L298 96C289.591 94.1266 282.638 97.5963 279 88L281 80C284.787 82.3168 284.91 85.7992 285 90L301 88L300 81L288 82C287.258 78.5352 281.934 76.7322 280 80L279 80L276 77L276 75L280 70L262 71L264 65L251 60L251 55z"/>
<path style="fill:#7f6240; stroke:none;" d="M230 59L226 65L230 65L232 59L230 59z"/>
<path style="fill:#d5c184; stroke:none;" d="M234 59L234 66L235 66L234 59z"/>
<path style="fill:#9e7c4e; stroke:none;" d="M238 59L237 64L243 66L241 61L240 63L239 63L238 59z"/>
<path style="fill:#ffed9f; stroke:none;" d="M236 61C234.91 64.7308 234.519 67.7428 238 70L242 67L237 64L238 61L236 61z"/>
<path style="fill:#d7bc91; stroke:none;" d="M225 65L226 69L233 67L225 65z"/>
<path style="fill:#b19951; stroke:none;" d="M231 64L231 67L231 68L234 70L235 70L231 64z"/>
<path style="fill:#a18657; stroke:none;" d="M244 64L246 67L238 67L238 68L249 67L256 69L255 65L254 65L244 64z"/>
<path style="fill:#cead80; stroke:none;" d="M242 66L242 67L246 67L242 66z"/>
<path style="fill:#97795f; stroke:none;" d="M223 66L216 73L224 69L227 70L223 66z"/>
<path style="fill:#836040; stroke:none;" d="M222 67L219 70L215 69L215 73L211 74L212 77L210 77L211 80C207.317 81.2222 205.223 85.8198 208 89L202 93L207 95L209 90L214 90L209 94C210.778 99.6305 215.907 98.9966 221 99L221 97L217 97L215 94L215 93L215 92L218 89L209 89L213 78L215 80L219 78L219 77L216 77L218 75L218 74L218 73L216 71C218.408 70.8296 223.176 69.9148 222 67z"/>
<path style="fill:#604941; stroke:none;" d="M227 67L224 69C222.373 70.9072 212.789 75.7642 219 77L219 78L213 78L209 89C214.256 87.9586 217.477 86.9447 217 81L224 80L225 87L215 92L215 93L215 94L217 97L221 97L221 99L213 99C212.49 103.775 212.341 108.52 216 112L231 101L224 99L229 98C230.428 92.0013 227.997 85.2717 233 81L232 75L228 77C230.003 72.5186 231.665 70.1982 227 67z"/>
<path style="fill:#785d54; stroke:none;" d="M229 67L228 77L232 75L233 81L230 82L230 83L235 82L232 73L234 68L229 67z"/>
<path style="fill:#cdae75; stroke:none;" d="M249 67L250 71L253 71L254 68L249 67z"/>
<path style="fill:#59492f; stroke:none;" d="M238 68L239 81L242 80C244.587 84.2185 248.424 84.1469 253 85L253 84L249 80L257 85L255 88L263 92L266 91L264 93L264 94L270 97L270 90L268 90C269.738 84.1181 268.89 79.8456 264 76L255.995 72.0417L238 68z"/>
<path style="fill:#eac880; stroke:none;" d="M235 69L234 72L236 72L235 81L236 81L235 69z"/>
<path style="fill:#ffecb9; stroke:none;" d="M253 69L257 72L253 69z"/>
<path style="fill:#bf9c58; stroke:none;" d="M233 70L232 73L234 77L235 77L236 72L233 70z"/>
<path style="fill:#a87d5a; stroke:none;" d="M237 70L237 77L238 77L237 70z"/>
<path style="fill:#dfc18f; stroke:none;" d="M257 70L259 73L257 70z"/>
<path style="fill:#9a8a73; stroke:none;" d="M259 72L258 73L264 78L259 72z"/>
<path style="fill:#c0985d; stroke:none;" d="M209 74L208 75L209 78L212 77L212 75L211 74L209 74z"/>
<path style="fill:#79675d; stroke:none;" d="M244 74L248 78L244 74z"/>
<path style="fill:#3c433b; stroke:none;" d="M329 96L334 90L338 92L344 85L345 90C332.548 96.1685 333.597 102.699 327.177 113.266C325.077 116.724 321.491 118.239 320 122C331.133 124.513 329.018 127.321 331 138L332 138C332.76 131.988 335.399 123.797 331 119L335 120L336 120L341 116C341 119.924 339.223 134.564 344.277 135.917C348.162 136.958 355.752 129.059 359 127L359 126L354 126L354 125C359.164 122.475 360.834 118.584 361 113L363 113L363 118L369 120C372.852 110.986 387.379 100.443 385 91L384 94L381 93L381 99L374 106L373 106L374 99L371 96L368 98L364 96C363.385 87.8613 356.178 92.8477 352.361 88.6667C349.078 85.0698 353.5 79.0725 355 76L343 78L344 74C336.046 76.9444 330.17 87.9447 329 96z"/>
<path style="fill:#73573f; stroke:none;" d="M238 76L236 88L236 89L238 98L249 98L243 86L247 87L250 85L251 88L257 87L249 80L253 84L253 85L242 80L239 81L240 76L238 76z"/>
<path style="fill:#fff4bd; stroke:none;" d="M236 77L233 83L234 90L238 77L236 77z"/>
<path style="fill:#2c4f4b; stroke:none;" d="M401 85L401 88L397 88C395.872 92.9932 394.225 98.4279 389 100L390 105C386.38 106.645 384.65 108.002 384 112C391.375 108.406 406.285 102.245 414 105L414 102L415 102L418 107L420 104L421 107L428 106C427.352 102.574 427.765 98.8067 424 98L424 95L427 95L427 89L416 89L416 88L420 88L420 85L415 85L420 77L401 85z"/>
<path style="fill:#ecd0a0; stroke:none;" d="M204 87L211 79C205.91 78.8121 204.579 82.4017 204 87z"/>
<path style="fill:#c7b381; stroke:none;" d="M237 78L237 82L238 82L237 78z"/>
<path style="fill:#825f4b; stroke:none;" d="M217 81L217 87L225 87L224 80L217 81z"/>
<path style="fill:#3c3429; stroke:none;" d="M281 80L279 88C281.742 97.918 289.592 94.8945 298 96L296 101C300.741 101.957 305.576 103.648 305 97L315 87L311 86L314 80L307 80L304 85L305 90L304 90L285 90L284 80L281 80z"/>
<path style="fill:#504941; stroke:none;" d="M313 81L311 86L315 87L306 100L319 91L316 92L315 92L319 87L315 81L313 81z"/>
<path style="fill:#c5977d; stroke:none;" d="M229 85L234 83L229 85z"/>
<path style="fill:#8c6b40; stroke:none;" d="M269 83L268 90L270 90L269 98L272 97L271 90L272 90L275 94L271 86L272 89L269 83z"/>
<path style="fill:#9f8856; stroke:none;" d="M201 84L206 89L207 85L206 85L204 87L201 84z"/>
<path style="fill:#84522d; stroke:none;" d="M229 85L231 99L232 99C234.955 93.8697 234.87 89.536 233 84L229 85z"/>
<path style="fill:#d2bc83; stroke:none;" d="M233 84L234 87L235 87L235 84L233 84z"/>
<path style="fill:#c4ad77; stroke:none;" d="M238 84L236 88L238 84z"/>
<path style="fill:#ccb09a; stroke:none;" d="M247 85L247 87L250 87L250 85L247 85z"/>
<path style="fill:#726751; stroke:none;" d="M342 85L338 92L334 90L327.056 106.981L320 115L314 118L315 113C311.191 115.912 312.581 119.26 317 120L322 132L328 129L328 138L329 138C330.349 127.329 331.352 123.301 320 122L326.671 114.946L332.858 99.1852L345 90L344 85L342 85z"/>
<path style="fill:#735c2a; stroke:none;" d="M200 86L194 103C199.925 100.398 200.787 94.8771 202 89L206 90L206 89L200 86z"/>
<path style="fill:#af8c64; stroke:none;" d="M216 87L216 89L223 87L216 87z"/>
<path style="fill:#4b483f; stroke:none;" d="M243 86C242.65 93.4664 248.657 96.1352 255 97L258 96C257.376 87.967 249.629 87.2497 243 86z"/>
<path style="fill:#c09e6e; stroke:none;" d="M270 86L272 89L270 86z"/>
<path style="fill:#edd9be; stroke:none;" d="M253 87L260 91L260 90L253 87z"/>
<path style="fill:#9f7f50; stroke:none;" d="M202 89C204.064 91.5904 205.685 91.1043 208 89L202 89z"/>
<path style="fill:#e2c083; stroke:none;" d="M236 89L232 99L236 100L236 94L237 94L237 98L238 98L238 89L236 89z"/>
<path style="fill:#7c7143; stroke:none;" d="M258 89L258 90L262 90L258 89z"/>
<path style="fill:#6b5941; stroke:none;" d="M320 89L306 104L312 107L319 103C316.444 98.6584 317.643 95.4001 322 93L322 89L320 89z"/>
<path style="fill:#c79e70; stroke:none;" d="M209 90L214 91L214 90L209 90z"/>
<path style="fill:#a99272; stroke:none;" d="M258 96L255 95L254 98L252 96L251 96L247 99L257 97L260 99L259 95L263 91C259.061 90.5993 258.299 92.2427 258 96z"/>
<path style="fill:#e9c48f; stroke:none;" d="M271 90L271 100C274.847 97.2709 273.803 93.2269 271 90z"/>
<path style="fill:#d4b886; stroke:none;" d="M201 91L202 97L205 95L205 94L202 93L205 92L201 91z"/>
<path style="fill:#caa288; stroke:none;" d="M264 91L265 97L266 96L264 94L264 93L266 91L264 91z"/>
<path style="fill:#ffdcab; stroke:none;" d="M200 95L196 103L196 105L202 106L205 99L208 100L212 92L200 95z"/>
<path style="fill:#ffffbf; stroke:none;" d="M262 92L262 95L263 95L262 92z"/>
<path style="fill:#f9ffb7; stroke:none;" d="M236 94L236 100L231 99L238 116L236 94z"/>
<path style="fill:#a97d40; stroke:none;" d="M274 94C274.321 104.575 284.191 108.704 289 117L293 114C286.592 110.026 281.973 102.802 279 96L276 97L274 94z"/>
<path style="fill:#604d3f; stroke:none;" d="M324 94L320 98L314 118L320 115C326.04 108.178 328.806 104.091 331 95L324 94z"/>
<path style="fill:#5b533c; stroke:none;" d="M143 95L142 104L141 109L147 107L147 116L142 116L145 118L139 124L141 129C154.439 128.085 157.364 144.55 170 148L170 147C166.706 144.007 158.43 138.595 160 134L160 133L158 131L156 132L149 116C154.23 114.879 150.895 106.02 150 102L164 108L160 98L152 97L152 99L143 95z"/>
<path style="fill:#a58b3e; stroke:none;" d="M203 97L206 95L203 97z"/>
<path style="fill:#bea77e; stroke:none;" d="M208 95L208 100L213 101L208 95z"/>
<path style="fill:#795944; stroke:none;" d="M259 95L260 99L257 97C252.529 99.4903 235.222 105.636 250 111L251 116L253 116L254 115L256 111C256.594 114.692 260.195 111.458 262 110L259 119L267 122L270 113L270 112L264 111L263 111L264 105L265 105L267 108L266 101L260 102L264 96L259 95z"/>
<path style="fill:#e8d3b6; stroke:none;" d="M252 96L252 98L254 98L254 96L252 96z"/>
<path style="fill:#f5d79b; stroke:none;" d="M265 96L264 99L271 105L272 105L265 96z"/>
<path style="fill:#bd9e65; stroke:none;" d="M266 96C267.662 99.1621 269.849 100.333 272 97L266 96z"/>
<path style="fill:#936848; stroke:none;" d="M309 96L293 120L295 123L302 117L300 127L301 128L308 124C305.737 128.02 298.818 134.197 303 137L300 138L303 147L300 151L308 149L313 145L319 142C327.529 139.385 328 138.045 328 129L322 132L317 120C312.343 118.558 312.37 115.411 313 111L309 110L306 104L311 96L309 96z"/>
<path style="fill:#91734f; stroke:none;" d="M224 99L231 101L216 112C211.421 105.865 212.652 94.7302 203 104L205 106L205 107L202 111L204 110L204 111L205 120C207.786 121.514 210.573 123.748 213 121L214 121C216.48 123.671 219.189 121.542 222 120L220 128C223.479 128.352 224.926 129.087 227 126L228 129L234 128L234 106L230 107L233 104L230 97L224 99z"/>
<path style="fill:#bd9b6b; stroke:none;" d="M243 97L240 102L245 106L245 97L243 97z"/>
<path style="fill:#95724a; stroke:none;" d="M245 97L244 101L248 100L247 97L245 97z"/>
<path style="fill:#9d6d3d; stroke:none;" d="M262 97L260 102L266 101L267 108L265 105L264 105L263 111L264 111L270 112L270 113L264 131L273 129L274 114L272 115C271.352 107.57 268.286 102.831 264 97L262 97z"/>
<path style="fill:#856649; stroke:none;" d="M162 98L164 108L150 102C150.322 106.583 153.297 113.171 149 116L152 127L153 127L153 120C157.838 122.641 166.12 125.856 171.7 124.486C175.603 123.528 177.784 120.391 182 120C187.68 108.779 168.486 102.902 162 98z"/>
<path style="fill:#f9db95; stroke:none;" d="M238 98C238.646 103.271 239.949 108.017 246 107L246 106L243 106L240 102L243 99L238 98z"/>
<path style="fill:#fdf8c0; stroke:none;" d="M273 98L271 100L272 106L277 104L273 98z"/>
<path style="fill:#b09f67; stroke:none;" d="M198 99L198 102L200 99L198 99z"/>
<path style="fill:#c18c6c; stroke:none;" d="M205 99C202.897 101.854 200.019 105.933 205 107L203 104L208 101L205 99z"/>
<path style="fill:#bc9166; stroke:none;" d="M319 100L312 107L311 104L310 104L309 110L313 111L312 115L313 115L321 100L319 100z"/>
<path style="fill:#93663f; stroke:none;" d="M184 114L188 113L191 122C197.826 119.929 198.65 110.02 193 106L193 105L197 102C191.388 103.54 186.913 109.106 184 114z"/>
<path style="fill:#e6b070; stroke:none;" d="M268 102L272 115L274 114L274 118L275 118L277 112L268 102z"/>
<path style="fill:#674d34; stroke:none;" d="M282 102C287.106 117.559 294.788 109.908 304 104L292 106.123L282 102z"/>
<path style="fill:#fddb9c; stroke:none;" d="M273 111L275 105L276 105L280 108L278 103C274.093 104.709 272.502 106.695 273 111z"/>
<path style="fill:#ecc486; stroke:none;" d="M230 107L234 108C235.702 104.451 230.928 102.67 230 107z"/>
<path style="fill:#d7ae6c; stroke:none;" d="M193 105L193 106L196 110L203 109L193 105z"/>
<path style="fill:#926a50; stroke:none;" d="M239 105L237 129L244 127L243 134L249 133C249.243 129.574 251.561 126.393 251.38 123.015C251.159 118.905 245.853 115.304 250 112L250 111L246 107L239 105z"/>
<path style="fill:#ebb56f; stroke:none;" d="M275 105L274 111C276.523 109.166 276.616 107.619 275 105z"/>
<path style="fill:#c98c56; stroke:none;" d="M277 107L274 111L274 112C276.907 114.289 276.086 117.274 274 120L273 129L265 131L265 132L267 134L261 135L264 144L265 144L265 141C270.929 142.55 278.762 145.944 281 138C288.782 141.864 289.652 133.642 291 128L288 127L289 121C293.46 119.365 294.4 116.24 296 112L289 117L286 111L285 111L284 115L277 107z"/>
<path style="fill:#f6e0a6; stroke:none;" d="M197 117L198 117L199 110L202 114L203 114L204 110L202 108C196.87 109.119 197.017 112.296 197 117z"/>
<path style="fill:#b17b4f; stroke:none;" d="M234 108L234 128L227 126L226 129L220 128L222 120L214 121L213 121L209 123L209 124L213 124L213 131L200 111L199 111C198.709 117.775 196.091 124.863 203 129C200.554 130.957 200.137 132.427 203 133L203 134L201 135C203.689 137.478 207.52 142.641 211 139C214.814 139.703 216.981 139.445 219 136L215 137L217 133L215 133L216 130L227 135L231 132L230 135C237.23 130.48 237.087 115.356 234 108z"/>
<path style="fill:#d5b27a; stroke:none;" d="M278 108L281 115L285 112L285 110L278 108z"/>
<path style="fill:#676f57; stroke:none;" d="M128 110L128 114L121 117L119 117L113 111C112.528 115.094 111.187 119.592 116 121L116 128L120 127C120.756 132.705 132.647 155.647 139 146L144 147L145 144L147 144C151.975 153.031 160.145 157.434 170 154L177.111 160.389L184 174L176 171C169.317 174.668 176.585 179.03 178 184L187 189L187 190L180 193L186 194L184 197L204 199L204 195L204 194L200 194L200 187L208 185L207 177L203 178L205 176L201 171L192 172L192 171L193 166L185 166C187.369 157.023 175.844 157 177 147L173 140L168 135L158 134L170 147L170 148C162.403 144.61 156.747 139.302 153 132L150 134L150 129L141 129L139 121L133 121L137 112L128 110z"/>
<path style="fill:#c69668; stroke:none;" d="M199 110L209 129L213 128L213 124L209 124L205 120L207 118L207 117L199 110z"/>
<path style="fill:#9d6f4b; stroke:none;" d="M260 110C259.359 113.844 255.232 114.071 256 111L253 112C252.74 120.427 258.846 136.97 266 122L259 119L262 110L260 110z"/>
<path style="fill:#39574f; stroke:none;" d="M371 111L369 120L363 118L363 113L361 113C360.635 118.433 358.339 121.795 354 125L354 126L360 126C362.43 121.667 371.058 123.02 376 122L374 128C366.994 128.222 354.872 130.064 352 137L356 136C353.719 139.945 348.412 140.474 344.615 143.004C337.548 147.713 327.107 162.088 317 158L307 166L303 176C295.376 174.914 288.949 170.808 286 181C280.613 180.429 274.072 181.07 271 186L267 184L267 188L265 188L265 184L261 190L272 190L272 197L276 196L276 192C280.792 195.466 285.295 198.395 291 195L288 194L290 192L288 183C292.114 183.855 296.766 191.643 300 188L301 188L302 193L304 191C307.379 191.76 309.861 191.924 312 189L309 188L309 187L313 186L313 182L321 182L320 179L330 179L330 178L323 168C327.761 167.259 330.975 164.772 332 160C340.324 158.899 356.051 154.986 359 146C374.524 145.988 381.656 136.682 382 122L377 122L376 111L371 111z"/>
<path style="fill:#c8905f; stroke:none;" d="M247 112C249.117 121.632 251.209 124.256 247 134L255 135L257 129L257 128L250 112L247 112z"/>
<path style="fill:#e1b672; stroke:none;" d="M178 124L182 148L184 146L189 147L184 130L185 126C187.711 126.577 188.395 126.767 189 124L193 125L190 123L191 119L188 113L178 124z"/>
<path style="fill:#c79d6b; stroke:none;" d="M198 113L198 117L199 117L198 113z"/>
<path style="fill:#ffd3a2; stroke:none;" d="M282 113L282 115L284 115L284 113L282 113z"/>
<path style="fill:#f5d379; stroke:none;" d="M235 114L233 137C240.144 135.807 238.37 118.933 235 114z"/>
<path style="fill:#d2955c; stroke:none;" d="M196 115C195.376 118.993 194.144 120.818 190 121L193 125L189 124L185 126L184 130L189 147L184 146L183 151L190 155L193 157L199 155L193 153L193 152L194 146L198 148L201 146L199 148L200 152L201 152L198 130L199 130L200 138L201 138L203 134L203 133L203 129L196 115z"/>
<path style="fill:#ffcfa0; stroke:none;" d="M275 116L275 120L276 120L275 116z"/>
<path style="fill:#655641; stroke:none;" d="M336 120L335 120L331 119C335.201 125.309 331.242 135.714 342 134L341 116L336 120z"/>
<path style="fill:#e0a062; stroke:none;" d="M301 117L295 123C294.231 119.411 292.137 120.166 289 121L292 125L291 128L295 137L299 136L296 150C289.473 150.137 279.86 160.14 277 166C285.457 164.845 297.964 154.449 299 146L303 146C301.325 142.225 299.878 140.326 303 137L300 136L308 124L301 128L300 127L301 117z"/>
<path style="fill:#a4825d; stroke:none;" d="M153 120L156 132L158 131L168 135L168 134L162 131L162 130L177 133L174 125L181 124L181 119L171.7 124.143L153 120z"/>
<path style="fill:#d5a984; stroke:none;" d="M266 124L269 121L266 124z"/>
<path style="fill:#506a61; stroke:none;" d="M334 128L333 128L332 138L331 138L330 134L329 134C327.736 140.111 323.885 139.659 319 142C316.887 139.752 314.239 142.844 313 145C303.274 145.966 313.306 152.29 316 155L315 156L312 155L295 163L295 170L270 173L260 180L262 184L255 182L254 189L248 193L248 194L248 195C252.393 199.074 255.901 200.857 262 201L262 205L259 205L259 209L277 212L277 217L286 214L285 220L285 221L289 225L292 223L299 225C299.384 229.811 301.354 230.862 306 230L306 233L314 233L312 231L312 230C317.912 229.874 327.815 229.273 332 225L325 223L326 226L312 225L312 222L302 222L301 212L295 212L295 210C299.819 209.84 301.37 208.513 303 204L299 204C300.181 198.321 304.633 196.217 310 195L309 191L304 191L302 193L301 188L300 188L288 183L288 194L291 195C284.588 197.573 281.6 194.785 276 192L276 196L272 197L272 190L261 190L265 184L265 188L267 188L267 184L271 186C275 181.751 280.327 180.697 286 181C290.336 171.633 294.837 175.414 303 176L307 166C312.246 165.398 314.254 162.246 317 158C325.897 163.775 338.995 147.119 345.439 143.008C349.24 140.583 354.494 140.512 356 136L352 137C355.988 130.543 366.703 128.524 374 128L376 122C372.039 122.533 365.582 121.593 362.17 122.731C356.376 124.663 336.769 147.741 334 128z"/>
<path style="fill:#255351; stroke:none;" d="M112 124L112 128L109 127L107 138L112 138L111 143L115 144C115.032 155.218 121.435 153.595 131 155L131 152L134 152C135.152 159.22 142.14 157.276 148 158L146 161L154 174L137.044 174.122L124 168L124 171L120 171L115 176L116 183C108.097 184 98.8021 191.271 112 192L117 184L112 198C118.732 193.975 123.303 189.88 125 182L126 182L124 193L131 192L126 195L131 198L131 202L137 203L137 198L143 193L144 193L145 199L148 199L148 203L151 203L154 216L153 216L152 212L151 212L147 226C142.009 223.824 132.423 218.939 128 224L121 224L116 221L116 223L120 223L120 231L136 230L136 231L131 231L131 232L161 236L161 238L156 241L175 239L175 235L181 235L181 234L176 234L176 231C167.188 230.646 161.97 231.724 160 222L170 223L169 220L176 218L178 220L178 215L186 219L190 206L188 204L190 202L188 197L184 197L186 194L180 193L187 190L187 189L178 184C177.141 178.578 170.755 175.606 176 171L184 174C182.586 164.05 174.487 161.076 170 154C159.257 156.272 153.726 152.334 147 144L145 144L144 147L139 146C131.251 153.176 121.405 133.278 120 127L116 128L116 124L112 124z"/>
<path style="fill:#c2934d; stroke:none;" d="M174 125L177 133L171 132L178 137L178 138L169 135L168 135L173 140L174 147L175 147L182 147L178 124L174 125z"/>
<path style="fill:#e8bf93; stroke:none;" d="M218 124L218 128L219 128L218 124z"/>
<path style="fill:#d9af7d; stroke:none;" d="M265 124L266 128L265 124z"/>
<path style="fill:#0d3032; stroke:none;" d="M105 125L95.8387 143.17L94 166L90 166L83 179L82 179L81 177L78 185L62 185L63 182C59.2 177.144 57.6734 170.098 58 164C55.9269 165.362 54.2984 166.812 56 169L56 170L48 169L54 176L54 177L52 181L55 178L56 178L61 193C62.5007 194.812 62.1579 195.022 60 196L63 199C60.6354 204.613 58.962 207.893 53 210L53 203L51 201L50 201L46 208L47 212L42 211C41.3875 205.569 28.6364 208 24 208L24 213L16 213L16 216L21 218L12 218L12 220L16 220L16 221L12 221L16 225L17 220L23 223C23.7873 230.006 29.5675 232.148 36 233L37 231L36 221L40 225L41 225L40 220C47.099 227.776 56.8393 234.642 68 235C68.7801 246.084 95.0508 242.294 104 243L104 245L96 245L100 248L100 249L96 249L96 251L112 248L112 252L120 250L118 252L118 253L122 258L126 258L125 266L137 266L140 261L139 264L144 257L155 257L160 247L161 247L169.005 246.361L185 247L185 243C191.804 243.291 206.254 242.459 211 237L196 231L198 227C192.547 227.366 182.741 229.045 181 235L175 235L175 239L156 241L161 238L161 236L131 232L131 231L136 231L136 230L120 231L120 223L116 223L116 221L121 224L128 224C133.791 219.613 140.956 224.088 147 226L151 212L152 212L153 216L154 216L151 203L148 203L148 199L145 199L144 193L143 193L137 198L137 203L131 202L131 198L126 195C128.993 194.936 130.346 195.054 131 192L124 193L126 182L125 182C122.644 189.72 118.006 193.094 112 198L117 184L112 192C99.332 190.576 109.16 184.275 116 183L115 176L120 171L124 171L124 168L136.108 174.137L154 174L146 161L148 158C142.28 156.942 135.938 158.625 134 152L131 155C122.094 152.964 115.1 155.019 115 144L111 143L112 138L107 138L108 125L105 125z"/>
<path style="fill:#8d6541; stroke:none;" d="M278 135L286 125C280.417 125.607 274.503 128.832 278 135z"/>
<path style="fill:#ffed9c; stroke:none;" d="M288 127L292 125L288 127z"/>
<path style="fill:#ffd59d; stroke:none;" d="M263 126L263 128L265 128L265 126L263 126z"/>
<path style="fill:#f1be8f; stroke:none;" d="M211 127L212 131L213 131L211 127z"/>
<path style="fill:#b8813e; stroke:none;" d="M237 129L238 136L247 135L247 134L243 134L244 127L237 129z"/>
<path style="fill:#d49f5b; stroke:none;" d="M258 134C254.663 141.326 246.953 137.887 240 140L243 141L243 142C237.329 144.28 238.774 150.374 241 155L246 151L251 146L253 146L254 148L254 149L250 151L248 158L254 159L254 160L243 165L243 166L260 166C259.198 158.932 264.669 160.286 266 166L282 160L282 159L280 157L284 158L283 154L285 155L285 154L283 150L282 153L272 154C271.653 147.62 276.173 145.626 282 146L288 138L281 138C277.787 147.083 266.331 137.914 265 144L264 144L261 135L267 134L267 132L264 131L265 128C261.766 127.788 253.584 129.803 258 134z"/>
<path style="fill:#f2c866; stroke:none;" d="M291 128L282 146C276.025 145.364 270.782 147.19 272 154L283 150L285 155L283 154L283 155L284 157L284 158L280 157C284.059 162.576 290.253 150.84 296 150L299 136L295 137L293 128L291 128z"/>
<path style="fill:#ffda83; stroke:none;" d="M255 129L255 135L247 134L245 138L245 139C251.24 138.387 255.737 141.375 258 134L257 129L255 129z"/>
<path style="fill:#0d2b2d; stroke:none;" d="M0 130L0 168L3 165L6 165L4 168L4 169L16 166L16 170L5 171L5 172L18 174L19 171L24 178L30 178L35 148L34 148L30 155L22 155C24.1268 150.795 29.5578 145.657 26.9722 140.444C24.7037 135.87 19.5233 135.268 18 130L16 133L13 131L9 134L9 130L0 130z"/>
<path style="fill:#a19b81; stroke:none;" d="M149 130L152 134L149 130z"/>
<path style="fill:#d4a26f; stroke:none;" d="M162 130L162 131C167.334 134.649 171.151 139.316 178 138L162 130z"/>
<path style="fill:#dfad66; stroke:none;" d="M198 130L201 152L200 152L201 146L198 148L194 146L193 149L193 152L193 153L205 160L205 169L207 172L222 177L223 174L223 173C217.01 172.404 210.966 170.694 207 166L216 169L217 164L222 163L219 160L219 159L225 159L224 154L235 155L235 149L236 149L237 157L244 158L246 154L241 155C239.134 149.88 237.726 145.235 243 142L243 141L241 139L238 147C234.852 143.487 229.64 133.579 224 140L223 140C222.176 135.213 218.658 133.531 215 137L219 136L211 139C207.648 140.794 205.685 139.123 204 136L200 138L198 130z"/>
<path style="fill:#f5c982; stroke:none;" d="M216 130L215 133L219 135L220 135L222 133L222 132L216 130z"/>
<path style="fill:#d8a564; stroke:none;" d="M229 132L228 136C231.43 136.784 232.864 136.422 234 133L230 135L231 132L229 132z"/>
<path style="fill:#123133; stroke:none;" d="M409 135L410 138L400 139L400 144L392 144C392 152.18 390.08 156.045 386 163L393 167L386 173L382 171L378 176L379 173L371.907 178.451L351 180L350 186L340 185L342 181L338 182L338 178L331 176L331 180L320 179L321 182L313 182L313 186C310.231 186.516 308.166 188.177 312 189L309 192L311 196L318 196L318 206L313 208C312.308 204.772 310.899 204.98 308 206C306.596 204.407 304.016 203.968 303.991 207.059C303.934 213.999 313.749 221.698 320 220L334 226L323 228L324 232C319.446 232.11 316.18 232.726 314 237L320 234L322 238L311 238L312 242C305.279 240.496 297.198 235.354 294 245L288 249L285 248L284 252C280.483 251.003 269.717 246.906 269 252C265.754 251.45 263.932 251.403 264 255L256 256L256 257L259 257L253 261L253 260L256 259L256 258L250 257L259 252L249.519 254.458L246 261L247 258L240 259C239.14 255.919 238.092 255.478 235 256L235 257L239 257L239 258L227 258L228 261L224 263L227 262L228 262L229 262L244 263L244 266L274 266L268 258L282 262L282 260L288 261L288 257L284 256L284 255L312 248L308 255L313 250L324 249L318 247L326 246L324 241L338 245L339 241L363.001 246.633L372 248L373 248L380 249L380 248L375 247L375 245C386.844 244.057 397.704 239.027 408 248L404 248L419 252C421.847 241.111 447.957 245 457 245L447.001 241.411L437.834 236.283L424 238L424 234L411 234L411 235L419 237L420 243L416 243L416 247L406 241L413 240L413 239C408.801 238.619 406.054 237.816 404 234L408 234C407.829 228.77 406.326 226.6 401 226L401 224L408 224L408 223L406 222L406 221L413 212L410 208L415 208L415 200L414 200L410 205L410 200L404 200C403.953 196.065 404.046 193.343 400 192L401 183L396 183L396 181L403 180L403 179L396 179L397 176L393 176L393 175L400 173C404.194 165.777 410.744 161.468 419 163L417 153L427 151L432 171C426.983 171.059 424.422 171.589 424 177L425 177L426 175L431 181L440 180L437 182L437 188L434 188L434 192L448 194C442.288 185.339 447.636 174.616 448.517 164.039C449.143 156.528 447.661 147.889 448 140L428 139L432 143L432 144L422 144L422 136L419 136L419 132L409 135z"/>
<path style="fill:#fff1ac; stroke:none;" d="M220 133L223 140L224 140L247 138L247 137L228 136L229 133L227 135L220 133z"/>
<path style="fill:#cb8e4d; stroke:none;" d="M306 134C305.614 138.769 307.397 140.872 312 142C311.313 137.768 310.001 135.662 306 134z"/>
<path style="fill:#dfb579; stroke:none;" d="M239 136L239 137L247 137L239 136z"/>
<path style="fill:#b08042; stroke:none;" d="M220 138L219 142L222 138L220 138z"/>
<path style="fill:#c28546; stroke:none;" d="M227 139L220 144L225 151L228 148L228 147L229 139L227 139z"/>
<path style="fill:#fed472; stroke:none;" d="M233 140L238 147L239 139L233 140z"/>
<path style="fill:#081d1e; stroke:none;" d="M36 142L30 178L24 178C23.3959 174.284 22.5748 172.402 19 171L18 174L5 172L5 171L16 170L16 166L4 169L4 168L7 168L6 165L3 165C-5.03567 177.761 0 204.094 0 219L21 218L16 216L16 213L24 213L24 208C28.2639 208 41.6419 205.628 42 211L47 212L46 208L50 201L51 201L53 203L53 210C59.3821 208.449 61.1715 205.042 63 199L60 196C62.4584 195.483 63.5234 194.417 61 193L56 178L55 178L52 181L54 177L54 176L48 169L56 170L56 169L54 168L56 164L51 165L54 161L46 156L47 146L44 143L36 142z"/>
<path style="fill:#ffd493; stroke:none;" d="M203 143C203.064 145.993 202.946 147.346 206 148L203 143z"/>
<path style="fill:#ad9e75; stroke:none;" d="M175 145L176.872 154.431L192 162L197 161C196.075 156.704 191.583 158.94 188 159C187.003 152.462 181.695 145.912 175 145z"/>
<path style="fill:#fff2b4; stroke:none;" d="M251 146L250 150L254 149L253 146L251 146z"/>
<path style="fill:#6f6a4c; stroke:none;" d="M299 146C297.202 154.611 292.142 156.103 285 160C288.225 169.725 296.375 161.272 301.129 159.164C305.193 157.362 309.129 159.114 312 155L315 156L316 155C312.32 149.568 305.771 148.585 300 151L303 147L299 146z"/>
<path style="fill:#e7c774; stroke:none;" d="M235 149L235 155L224 154L225 159L219 159L219 160L222 163L217 164L216 170L211 170L211 171L234 176C233.882 172.304 233.882 169.136 230 168L231 165L227 163L228 159L234 160L234 156L236 156C236.754 160.331 238.948 160.537 243 160L244 167L254 160L254 159L248 158L252 150L249 149L246 151L244 158L237 157L235 149z"/>
<path style="fill:#f1c07e; stroke:none;" d="M254 153L257 153L257 154L255 156L261 158L264 152L258 150L254 153z"/>
<path style="fill:#f9dea7; stroke:none;" d="M184 151L188 159L194 159L190 155L184 151z"/>
<path style="fill:#b08f59; stroke:none;" d="M194 155L198 164L205 168L206 168L205 160C202.555 155.461 198.782 155.386 194 155z"/>
<path style="fill:#fff3a1; stroke:none;" d="M234 156L234 160L228 159L227 163L230 168L238 174C239.349 169.742 241.832 169.453 246 170L242 167L243 160C239.206 160.058 237.222 159.781 236 156L234 156z"/>
<path style="fill:#ad9356; stroke:none;" d="M260 167C272.3 166.061 257.643 153.563 260 167z"/>
<path style="fill:#806b4c; stroke:none;" d="M186 160L185 166L193 166L192 171L192 172L198 172L198 164L186 160z"/>
<path style="fill:#f9d99e; stroke:none;" d="M193 160L198 164L193 160z"/>
<path style="fill:#dfbd7e; stroke:none;" d="M269 164L272 168L282 161L269 164z"/>
<path style="fill:#948b6e; stroke:none;" d="M284 161C281.241 166.101 274.423 167.339 269 168C270.936 170.545 273.691 171.541 276 169L279 171L280 171C284.587 167.636 288.568 168.251 294 169L284 161z"/>
<path style="fill:#ffffd8; stroke:none;" d="M232 167L241 168L240 163C235.697 162.303 232.833 162.204 232 167z"/>
<path style="fill:#ddca90; stroke:none;" d="M198 164L205 170C204.118 165.76 202.429 163.843 198 164z"/>
<path style="fill:#21524f; stroke:none;" d="M386 163C384.51 168.43 378.104 170.489 373 172L373 176L366 174L369 168L364 172L360 170C357.59 176.009 350.378 179.837 345 183L345 184L350 186L351 180C358.538 180.22 365.48 182.417 372.741 178.451C375.245 177.084 376.486 174.436 379 173L378 176L382 171L386 173L393 167L386 163z"/>
<path style="fill:#98895e; stroke:none;" d="M198 165L198 174L201 171L212 176L210 182L215 178L216 178C217.076 181.787 219.455 181.297 223 181L224 176C219.493 176.415 209.475 172.822 207 169L203 170L198 165z"/>
<path style="fill:#ffeb95; stroke:none;" d="M221 166L221 170L229 167L221 166z"/>
<path style="fill:#fff2b5; stroke:none;" d="M267 169L272 168L271 165L267 169z"/>
<path style="fill:#7e7860; stroke:none;" d="M293 165L294 169C288.721 167.524 283.983 166.709 280 171L279 171L276 169L264.09 170.892L243 182L243 181L246 178L236 180C236.858 185.137 239.747 184.758 244 183C247.259 186.509 268.857 178.236 270 173L295 170L296 165L293 165z"/>
<path style="fill:#ffea9a; stroke:none;" d="M207 166L216 170L207 166z"/>
<path style="fill:#e4c87f; stroke:none;" d="M244 167L244 168L246 170C242.187 169.181 239.416 168.977 238 173L251 172L248 169L261 168L259 171L269 170L269 169L268 166L244 167z"/>
<path style="fill:#ffffb3; stroke:none;" d="M248 169C250.294 172.622 254.2 173.657 257 170L261 168L248 169z"/>
<path style="fill:#aea16c; stroke:none;" d="M257 170C250.083 176.016 239.567 167.847 236 178L234 178C231.188 173.186 226.02 174.001 221 174L222 177L224 176L231 177L228 179L228 184L231 183C231.729 186.403 233.806 185.987 237 186L236 180L246 178L243 181L243 182C249.592 181.141 258.735 176.98 262 171L257 170z"/>
<path style="fill:#e2cc9d; stroke:none;" d="M234 171L234 178L237 174L234 171z"/>
<path style="fill:#7f8f75; stroke:none;" d="M205 174L203 178L207 177L208 185L200 187L200 194L204 194L204 195C198.832 200.911 221.009 197.127 223 197L220 195L220 194C223.962 193.363 225.531 191.935 224 188L228 188L228 186L221 187L221 183C224.501 184.25 228.194 186.211 231 183L228 184L231 177L223 178L223 181C219.408 181.123 217.354 181.682 216 178L215 178L210 182L212 176L205 174z"/>
<path style="fill:#6b836b; stroke:none;" d="M244 183C235.131 185.841 229.869 185.084 221 183L221 187L228 186L228 188L224 188L226 190L226 191L220 194L220 195L223 197L240 202L239 207L241 205L245 206L245 207L243 208L246 209L246 205L247 205L247 210L248 210L248 204L243 201L250 199L253 202C250.779 215.52 269.251 215.343 279 218L279 217L277 212L259 209L259 205L262 205L262 201L248 195L248 194L248 193L254 189L255 182L262 184C256.244 175.585 250.381 186.538 244 183z"/>
<path style="fill:#2f594f; stroke:none;" d="M310 193C305.403 196.916 299.789 197.123 299 204L303 204C300.967 207.955 299.546 209.649 295 210L295 212L301 212L302 222L312 222L312 225L326 226L325 223L334 226L320 220C313.858 221.074 304.888 213.824 304.286 207.259C304.019 204.341 306.558 205.101 308 206L313 208L318 206L318 196L310 193z"/>
<path style="fill:#182d24; stroke:none;" d="M189 199L189 200L211 203L211 204L197 208L197 209L213 208L213 207L208 207L208 206C213.453 205.815 216.688 205.446 219 211L215 210L215 215L212 219L219 220L218 216L221 218L227 213C227.877 220.629 237.477 223.06 240 215L234 217L230 214L230 206L226 201L230 200L231 207L231 208L232 212L241 209L241 208L236 209L239 204L226.999 196.873L204 201.891L189 199z"/>
<path style="fill:#4f645d; stroke:none;" d="M217 197L217 198L222 198L217 197z"/>
<path style="fill:#2f443b; stroke:none;" d="M188 198L188 204L188 205L206 205L206 206L203 206L203 207L211 204L211 203L189 200L189 199L192 199L188 198z"/>
<path style="fill:#415549; stroke:none;" d="M196 200L196 201L213 200L196 200z"/>
<path style="fill:#859885; stroke:none;" d="M243 201L248 204C247.926 208.411 244.417 218.804 250 220L250 221L248 221L248 222L259 226C265.144 234.234 275.121 226.69 282.985 227.069C288.96 227.357 292.575 230.755 299 230L299 225L292 223L289 225L285 221L285 220L288 220L286 214C275.995 216.618 251.743 217.725 253 202L250 199L243 201z"/>
<path style="fill:#3b5049; stroke:none;" d="M226 201L230 206L230 214L231 214L233 208L230 200L226 201z"/>
<path style="fill:#9db4a2; stroke:none;" d="M237 202L237 204L240 204L240 202L237 202z"/>
<path style="fill:#92a999; stroke:none;" d="M231 203L233 207L231 203z"/>
<path style="fill:#587062; stroke:none;" d="M186 219L178 215L176 218L169 220L170 223L160 222C160.951 232.294 167.179 230.891 176 231L176 234L198 227L198 226L195 225L201 226L200 222L202 216L201 216L201 219C197.537 217.793 189.3 217.394 195 213L193 215L193 216L199 212L205 212L205 211L188 209L188 208L206 206C201.772 204.349 189.521 203.18 187.156 208.214C185.884 210.921 186.707 215.822 186 219z"/>
<path style="fill:#334336; stroke:none;" d="M208 206L208 207C222.068 208.009 196.832 229.178 210 232L208 221L212 229L214 229L214 224L215 224L215 227L216 227L224 222L222 217L218 216L219 220L212 219L215 215L215 210L219 211C217.273 204.747 213.608 205.573 208 206z"/>
<path style="fill:#516353; stroke:none;" d="M241 205L236 209C238.567 208.465 242.186 208.166 241 205z"/>
<path style="fill:#3b4837; stroke:none;" d="M246 205C245.832 210.135 244.372 212.68 239 213L240 218L244 218L244 228L245 228C246.282 220.427 249.189 212.53 246 205z"/>
<path style="fill:#8ea18e; stroke:none;" d="M242 206C239.036 209.986 235.947 211.318 231 211L234 217L239 213L246 212L246 209L245 207L242 206z"/>
<path style="fill:#1f443d; stroke:none;" d="M164 207L166 216L169 216C168.984 211.345 169.225 207.872 164 207z"/>
<path style="fill:#294038; stroke:none;" d="M188 208L188 209L201 208L188 208z"/>
<path style="fill:#6e8573; stroke:none;" d="M199 212L193 216L193 215L195 213C186.501 216.407 199.844 221.385 201 216L202 216L200 222L201 226L195 225L207 230L214 208L199 212z"/>
<path style="fill:#374c43; stroke:none;" d="M202 210L202 211L206 211L202 210z"/>
<path style="fill:#a0b19f; stroke:none;" d="M225 213C219.07 221.835 229.048 233.907 239 232L238 228C232.66 223.646 228.068 220.088 227 213L225 213z"/>
<path style="fill:#434e3e; stroke:none;" d="M222 216L225 215L222 216z"/>
<path style="fill:#7f9080; stroke:none;" d="M239 218L239 220L242 220L242 218L239 218z"/>
<path style="fill:#b4c1b0; stroke:none;" d="M242 218L232 222L238 228L237 231L243 230L244 218L242 218z"/>
<path style="fill:#030905; stroke:none;" d="M0 219L0 266L90 266L88 261L91 262L88 260L89 257C81.9015 254.901 74.71 252.776 68 256C66.8734 253.994 66.1266 253.994 65 256L56 255L56 261L48 261L49 256L35 255L35 254L47 252L44 246L50 248L48 240L40 240L43 243L43 244L32.1613 232.588L23 223L17 220L16 225L12 221L16 221L0 219z"/>
<path style="fill:#596251; stroke:none;" d="M228 219L233 222L228 219z"/>
<path style="fill:#071c15; stroke:none;" d="M40 220L41 225L40 225L36 221L37 231L35 231L33 233C34.9363 238.209 37.4413 242.427 43 244L43 243L40 240L48 240L50 248L44 246L47 248L47 252L35 254L35 255L49 256L48 261L56 261L56 255L65 256L68 256C73.2508 254.267 86.1644 253.199 88 260L91 260L91 262L88 261L90 266L125 266L126 258L122 258C121.866 254.749 121.102 253.948 118 253L118 252L120 250L112 252L112 248L96 251L96 249L100 249L100 248L96 245L104 245L104 243C94.8797 241.847 69.5635 246.154 68 235C56.3138 234.145 48.5127 226.569 40 220z"/>
<path style="fill:#a6b7a5; stroke:none;" d="M247 220L246 229L256 227L248 222L248 221L250 221L247 220z"/>
<path style="fill:#131d14; stroke:none;" d="M208 221L211 239L185 243L185 247L161 247L160 247C158.832 254.491 163.759 259.533 171 261L170 264L175 263L175 264L173 266L244 266L244 263L229 262L228 262L227 262L224 263L228 261L227 258L239 258L239 257L235 257L235 256L240 259L247 258L246 261L250.194 254.333L259 252L250 257L256 258L256 259L253 260L253 261C255.616 260.725 261.271 257.639 256 257L256 256L264 255L263 252L269 252C269 247.018 280.738 251.399 284 252L285 248L288 249L294 245L296 242L296 241L273.05 236.352L261 229L257 230C250.234 232.458 239.312 227.342 236 236L233 236C229.453 230.438 222.557 230.439 224 222C219.064 224.532 218.003 227.933 220 233L225 235L216 242L215 224L214 224L214 229L212 229L211 221L208 221z"/>
<path style="fill:#3f4e47; stroke:none;" d="M224 222C222.473 227.744 225.055 232.063 231 233L224 222z"/>
<path style="fill:#194342; stroke:none;" d="M67 224L66 228L76 230L75 234L98 231L88 224C85.553 227.771 82.0072 226.741 78 226L78 228L67 224z"/>
<path style="fill:#67775d; stroke:none;" d="M219 224C213.533 227.947 215.392 233.278 217 239L218 239L219 224z"/>
<path style="fill:#5b6a57; stroke:none;" d="M245 224L245 228L244 228L244 226L243 226L240 230L240 231L250 230L250 229L246 229L245 224z"/>
<path style="fill:#3e4e44; stroke:none;" d="M250 230L257 230L263 229L263 228L259 226L250 230z"/>
<path style="fill:#3d544a; stroke:none;" d="M196 231L204 235L203 229L200 227L196 231z"/>
<path style="fill:#a2ab98; stroke:none;" d="M216.333 227.667L216.667 228.333L216.333 227.667z"/>
<path style="fill:#405747; stroke:none;" d="M277 227L276 233L281 233L272 236L272 237L285 240C288.117 235.438 299.563 233.226 296 241L312 242L311 238L322 238L320 234L314 237L324 232L323 228L312 230L312 231L314 233L306 233L306 230L277 227z"/>
<path style="fill:#607266; stroke:none;" d="M265 230C268.175 235.323 276.552 238.843 281 233L276 233L277 228L265 230z"/>
<path style="fill:#556b5e; stroke:none;" d="M203 230C203.717 234.509 206.06 236.01 210 238L210 232L203 230z"/>
<path style="fill:#445b51; stroke:none;" d="M219 231L218 239L217 239L217 237L216 237L216 242L225 235L219 231z"/>
<path style="fill:#7b8c7c; stroke:none;" d="M231 232L233 236L236 236L237 233L231 232z"/>
<path style="fill:#2c4f49; stroke:none;" d="M136 240L146 236C141.694 234.214 137.512 235.467 136 240z"/>
<path style="fill:#2a3a2f; stroke:none;" d="M285 239L299 239C295.93 234.265 288.579 235.345 285 239z"/>
<path style="fill:#0a1914; stroke:none;" d="M324 241L326 246L318 247L324 249L313 250L308 255L312 248L284 255L284 256L288 257L286 259L288 261L282 260L282 262L268 258L275 266L276 263L285 263L285 264L280 264L280 266L380 266L380 264L376 264L376 260L363 259L360 255C372.302 246.081 344.238 241.814 339 241L338 245L324 241z"/>
<path style="fill:#39534a; stroke:none;" d="M147 242L147 246L155 244L147 242z"/>
<path style="fill:#57695b; stroke:none;" d="M296 242L296 244L301 244L301 242L296 242z"/>
<path style="fill:#2b382e; stroke:none;" d="M210 254L210 255L224 254L224 255C220.102 255.048 216.231 254.791 215 259L225 256C222.802 249.356 214.644 250.771 210 254z"/>
<path style="fill:#071516; stroke:none;" d="M448 253L448 260C439.906 260 417.393 258.397 413 266L474 266L474 253L448 253z"/>
<path style="fill:#060c0a; stroke:none;" d="M155 257L144 257L139 264L140 261C136.946 261.654 137.064 263.007 137 266C148.099 266 165.025 269.19 175 264L175 263L170 264L171 261L160 253L155 257z"/>
<path style="fill:#5a6b61; stroke:none;" d="M270 253L270 255L274 255L274 253L270 253z"/>
<path style="fill:#253a31; stroke:none;" d="M276 263L276 266L285 264L276 263z"/>
</svg>
