<?xml version="1.0" standalone="yes"?>
<svg width="474" height="266">
<path style="fill:#ec1d23; stroke:none;" d="M0 0L0 266C3.64396 266 8.09638 267.217 9 263L12 263L12 266L28 266L33 253L29 255L33 251L33 250L31 247L34 250L35 250C42.3235 243.174 46.3224 239.749 42 230L38 227L35 228L34 217L35 217C43.4771 234.018 52.92 233.908 68 226L67 223L71 224C69.1034 229.46 63.2986 237.873 57 238L57 248L58 246L59 246C59.8823 252.825 61.2811 255.804 68 258L75 255L75 254L72 254L74 247L78 250L85 251L88 244L84 241L91 243L97 236L95 243L98 239L108 244L105 237L115 236L112 246L113 243L121 248C126.142 247.158 127.493 245.134 127 240L134 238L130 239L126 236L124 226L136 231L131 227L131 225L134 221L145 226L145 222L141 222L141 220L155 225L155 224L152 221L163 226L160 222C163.171 205.656 173.39 189.511 188 181C188.471 177.394 194.064 176.944 197 175C204.427 170.083 219.694 164.722 224 157C241.719 155.162 242.383 138.545 253 129L254.77 118.004L246 95L242 92L237 93L239 83L235 85L237 67L229 67L228 63L234 63C236.095 54.1266 238.574 46.6481 233 39C235.946 39.7459 237.311 40.1971 238 37L242 39C246.043 30.5597 249.126 26.0828 259 26C260.696 16.1891 269.308 10.0877 279 10L279 12C274.17 12.7616 272.113 15.3333 271 20L284 19C283.198 12.5157 283.027 7.7728 288 3L286 13L288 13L294 3L291 9L295 8L295 9L291 11L299 9L296 16L303 21L307 24L312 22L309 19L309 18C321.434 19.8775 327.729 22.9402 331 36C334.072 35.8903 334.698 38.2111 335 41C342.807 42.0521 348.312 45.6555 353 52L350 50L345 57L348 69L355 71L355 72L349 71L349 72L357 80L346 79L344 90L376 104L376 105L358 115L358 116L378 126L379 126L381 124C384.947 131.001 390.793 128.013 396.856 130.603C404.006 133.658 403.134 140.153 413 136C414.024 142.759 435.13 146.61 441 145C444.848 151.063 456.517 154.249 463 152L474 159L474 0L242 0C222.619 0 201.267 -2.55661 182.09 0.133484C175.064 1.11902 172.54 6.79218 174 13C169.009 8.92719 166.441 10.6751 161 13C164.323 10.2028 170.602 2.55002 162.867 0.317902C152.818 -2.58154 138.466 0 128 0L0 0z"/>
<path style="fill:#ffc1a1; stroke:none;" d="M165 0L170 5L165 0z"/>
<path style="fill:#ad2517; stroke:none;" d="M167 0C168.806 3.27228 170.382 3.80954 174 3L174 2L170 3L167 0z"/>
<path style="fill:#dc2a28; stroke:none;" d="M169 0L170 3L177 0L169 0z"/>
<path style="fill:#ff5e55; stroke:none;" d="M175 4L179 0L175 4z"/>
<path style="fill:#ffe8bb; stroke:none;" d="M166 10L174 13L175 3C170.698 4.40506 167.796 5.69861 166 10z"/>
<path style="fill:#9a0000; stroke:none;" d="M287 3L284 8L285 8L287 7L287 3z"/>
<path style="fill:#ff877e; stroke:none;" d="M292 3L291 7L292 7L294 3L292 3z"/>
<path style="fill:#d38362; stroke:none;" d="M170.667 4.33334L171.333 4.66666L170.667 4.33334z"/>
<path style="fill:#bb845b; stroke:none;" d="M167.333 5.66666L167.667 6.33334L167.333 5.66666z"/>
<path style="fill:#4d0000; stroke:none;" d="M285 6L283 16L284 16L285 6z"/>
<path style="fill:#ffcabc; stroke:none;" d="M290 6L288 11L290 6z"/>
<path style="fill:#cd986e; stroke:none;" d="M172.333 7.66666L172.667 8.33334L172.333 7.66666z"/>
<path style="fill:#900000; stroke:none;" d="M292 10L295 9L292 10z"/>
<path style="fill:#f18970; stroke:none;" d="M165 9L161 12L161 13L167 10L165 9z"/>
<path style="fill:#000104; stroke:none;" d="M284 13L284 19L262 22C260.237 30.6321 254.438 26.3161 249.317 30.6034C242.888 35.9853 247.056 41.8999 236 42L241 45L240 51L269 36L269 38C258.568 38.7337 260.001 48.4427 262 56L261 56L260 54L260 65L264 59L268 62C266.734 55.323 265.161 51.4478 268 45L269 45L268 49L269 49L275 39L307 46L307 45L284 36L284 35L313 38L313 39L298 41L298 42L304 42L325 52L313 52L313 55L317 56L317 57L313 56C313.912 63.0599 316.356 82.2667 326.004 82.3812C332.091 82.4534 338.546 76.2605 344 74L344 73L336 69L336 68L339 68L338 63L337 63L337 66L336 66L332 56L338 57L328 50C331.54 44.368 325.007 39.7033 320 38L320 36C322.995 33.9804 322.256 32.1638 321 29L320 29L320 32L309.985 24.5725L291 20L292 18C289.03 14.8565 290.206 12.6497 292 9L284 13z"/>
<path style="fill:#ae2b17; stroke:none;" d="M298 9L295 18L304 20L304 19L296 16L298 9z"/>
<path style="fill:#8e3827; stroke:none;" d="M271 10L266 21L267 21L274 10L271 10z"/>
<path style="fill:#f36c59; stroke:none;" d="M274 10L274 11L279 12L274 10z"/>
<path style="fill:#320000; stroke:none;" d="M260 27L252 28L252 29C257.843 28.9794 261.276 28.4196 262 22L266 24L271 11C264.192 14.1294 261.083 19.7665 260 27z"/>
<path style="fill:#ffb4a2; stroke:none;" d="M270 21L271 21L276 11C271.372 13.1852 269.432 15.8481 270 21z"/>
<path style="fill:#b2795e; stroke:none;" d="M290 11L293 13L290 11z"/>
<path style="fill:#ffdcc9; stroke:none;" d="M293 11L290 12L290 18L305 22L305 21C299.552 18.5747 294.217 18.0257 295 11L293 11z"/>
<path style="fill:#aca88f; stroke:none;" d="M289 13L289 17L290 17L289 13z"/>
<path style="fill:#efad93; stroke:none;" d="M294 13L294 17L295 17L294 13z"/>
<path style="fill:#c72e33; stroke:none;" d="M262 16L259 26C251.444 26.0208 246.596 27.3184 244 35L260 27L262 16z"/>
<path style="fill:#fbe3c7; stroke:none;" d="M268 18L266 24L270 18L268 18z"/>
<path style="fill:#4d5140; stroke:none;" d="M291 19L299 23C298.149 18.9823 294.744 18.4565 291 19z"/>
<path style="fill:#910000; stroke:none;" d="M309 18L309 19L315 20L315 19L309 18z"/>
<path style="fill:#ffbebb; stroke:none;" d="M314 18L314 19L324 27C323.296 21.6096 319.108 18.991 314 18z"/>
<path style="fill:#9f372e; stroke:none;" d="M311 23L323 29C323.904 22.2137 315.681 17.8559 311 23z"/>
<path style="fill:#c52821; stroke:none;" d="M319 19L319 20C323.644 24.0894 328.685 29.4845 328 36L346 45L335 41C334.564 38.0233 334.103 36.3819 331 36C329.616 28.7064 326.825 21.2039 319 19z"/>
<path style="fill:#bac5b4; stroke:none;" d="M294 20L294 21L298 23L294 20z"/>
<path style="fill:#e76534; stroke:none;" d="M32 21L34 25L32 21z"/>
<path style="fill:#7e735d; stroke:none;" d="M269 21L270 22L269 21z"/>
<path style="fill:#c4bdad; stroke:none;" d="M305 21L301 22L301 23L305 21z"/>
<path style="fill:#f58f8d; stroke:none;" d="M308 22L308 24L311 24L311 22L308 22z"/>
<path style="fill:#c43e00; stroke:none;" d="M35 23C37.7514 28.4513 42.1176 28.3952 46 24L35 23z"/>
<path style="fill:#ddc7b2; stroke:none;" d="M311 23L314 25L311 23z"/>
<path style="fill:#9d8265; stroke:none;" d="M314 23L314 24L320 32L322 27L322 26L314 23z"/>
<path style="fill:#ffa96f; stroke:none;" d="M34 24L37 28L34 24z"/>
<path style="fill:#24251f; stroke:none;" d="M276 26L276 27L288 25L276 26z"/>
<path style="fill:#a17670; stroke:none;" d="M310.667 24.3333L311.333 24.6667L310.667 24.3333z"/>
<path style="fill:#fff0d4; stroke:none;" d="M314 24L318 28L314 24z"/>
<path style="fill:#f96245; stroke:none;" d="M44 27L47 25L44 27z"/>
<path style="fill:#777066; stroke:none;" d="M301.333 25.6667L301.667 26.3333L301.333 25.6667z"/>
<path style="fill:#9b957d; stroke:none;" d="M312 25L312 26L316 27L312 25z"/>
<path style="fill:#f0f5ee; stroke:none;" d="M299 26L303 30L301 26L299 26z"/>
<path style="fill:#ffe9b8; stroke:none;" d="M324 26L325 31L324 31L323 28L322 28L323 36L335 43L324 26z"/>
<path style="fill:#b04d00; stroke:none;" d="M35 27L35 31L36 31L35 27z"/>
<path style="fill:#ffdc40; stroke:none;" d="M37 27L34 34L41 34L44 27L37 27z"/>
<path style="fill:#545069; stroke:none;" d="M271 34L278 27C273.981 28.1406 272.141 29.9812 271 34z"/>
<path style="fill:#e4e5d3; stroke:none;" d="M314 27L318 31L314 27z"/>
<path style="fill:#696447; stroke:none;" d="M316 27L317 28L316 27z"/>
<path style="fill:#c29183; stroke:none;" d="M320 27L322 32L323 32L320 27z"/>
<path style="fill:#6e736c; stroke:none;" d="M302 28L303 29L302 28z"/>
<path style="fill:#a58f5e; stroke:none;" d="M324 28L324 31L325 31L324 28z"/>
<path style="fill:#817575; stroke:none;" d="M315 29L316 30L315 29z"/>
<path style="fill:#be3f00; stroke:none;" d="M41 30L45 37L41 30z"/>
<path style="fill:#77787c; stroke:none;" d="M301.667 30.3333L302.333 30.6667L301.667 30.3333z"/>
<path style="fill:#d3cdcf; stroke:none;" d="M303 30L304 31L303 30z"/>
<path style="fill:#ca3800; stroke:none;" d="M27 40L43 38C39.2218 33.0562 36.273 33.3681 31 36L35 31L27 40z"/>
<path style="fill:#c9b8b1; stroke:none;" d="M304 31L305 32L304 31z"/>
<path style="fill:#5a6352; stroke:none;" d="M305 31L308 33L308 32L305 31z"/>
<path style="fill:#65686f; stroke:none;" d="M317 31L318 32L317 31z"/>
<path style="fill:#dd8458; stroke:none;" d="M328 31L328 35L329 35L328 31z"/>
<path style="fill:#a5a58b; stroke:none;" d="M323.333 32.6667L323.667 33.3333L323.333 32.6667z"/>
<path style="fill:#f17140; stroke:none;" d="M33 33L31 36L33 33z"/>
<path style="fill:#690000; stroke:none;" d="M246 33L243 42L246 41L246 33z"/>
<path style="fill:#232436; stroke:none;" d="M270 33L270 37L274 33L270 33z"/>
<path style="fill:#ffa55f; stroke:none;" d="M40 34L43 37L40 34z"/>
<path style="fill:#9b5356; stroke:none;" d="M246 35L245 40L246 40L246 35z"/>
<path style="fill:#788095; stroke:none;" d="M284 35L284 36C294.389 41.2967 301.866 39.2298 313 39L284 35z"/>
<path style="fill:#463639; stroke:none;" d="M320 36L320 38L324 39L323 35L320 36z"/>
<path style="fill:#212129; stroke:none;" d="M264 36L264 37L269 38L264 36z"/>
<path style="fill:#404d5e; stroke:none;" d="M290 36L290 37L302 37L290 36z"/>
<path style="fill:#bcbca0; stroke:none;" d="M323 36L324 40L325 40L328 39L323 36z"/>
<path style="fill:#ff6d63; stroke:none;" d="M238 37L240 40L238 37z"/>
<path style="fill:#8a191d; stroke:none;" d="M242 37L240 40L243 42L242 37z"/>
<path style="fill:#4d5375; stroke:none;" d="M246 50L246 51L257 45L260 46L266 38L246 50z"/>
<path style="fill:#6c7a87; stroke:none;" d="M280 38L280 39L287 42C285.581 38.2897 283.91 37.261 280 38z"/>
<path style="fill:#fbf2e1; stroke:none;" d="M325 38L328 42L325 38z"/>
<path style="fill:#a0000e; stroke:none;" d="M233 39L236 43L237 42L233 39z"/>
<path style="fill:#6d728f; stroke:none;" d="M275 39L275 40C285.845 44.5593 289.138 55.0989 290 66L291 66L292 53L293 53C294.208 58.7945 297.881 58.7624 303 60L301 58L301 57L306 56L299 53L299 52C304.669 52.2428 307.641 53.2059 312 49L312 56L313 56L313 52L320 48L291 45L293 48C287.014 43.8367 282.64 39.3964 275 39z"/>
<path style="fill:#00001b; stroke:none;" d="M280 39L280 40L286 42L280 39z"/>
<path style="fill:#3e495d; stroke:none;" d="M290.667 39.3333L291.333 39.6667L290.667 39.3333z"/>
<path style="fill:#5b5765; stroke:none;" d="M296 40L303 44L303 43L298 42L298 41L311 40L296 40z"/>
<path style="fill:#6d553b; stroke:none;" d="M327 39L328 40L327 39z"/>
<path style="fill:#713743; stroke:none;" d="M236 40L236 41L240 42L236 40z"/>
<path style="fill:#e79194; stroke:none;" d="M239 40L242 42L239 40z"/>
<path style="fill:#2b2f38; stroke:none;" d="M275 40L270 46L270 47L274 45L277 46L278 40L275 40z"/>
<path style="fill:#6d6f61; stroke:none;" d="M325 40L326 41L325 40z"/>
<path style="fill:#466543; stroke:none;" d="M328 40L330 50L331 50L328 40z"/>
<path style="fill:#484a45; stroke:none;" d="M319 41L321 44L319 41z"/>
<path style="fill:#7a766b; stroke:none;" d="M326 41L327 42L326 41z"/>
<path style="fill:#01000c; stroke:none;" d="M276 42C277.503 47.0634 280.285 51.4747 285 54L286 61L278 56C279.959 61.6433 284.087 64.5706 290 65C289.265 55.704 287.087 43.2297 276 42z"/>
<path style="fill:#42404e; stroke:none;" d="M286 42L293 48L292 44L291 43L286 42z"/>
<path style="fill:#373f4c; stroke:none;" d="M303 42L302 45L309 46L303 42z"/>
<path style="fill:#6d7367; stroke:none;" d="M327 42L328 43L327 42z"/>
<path style="fill:#e5f4e1; stroke:none;" d="M328 42L329 43L328 42z"/>
<path style="fill:#afac8d; stroke:none;" d="M331.667 42.3333L332.333 42.6667L331.667 42.3333z"/>
<path style="fill:#d87f61; stroke:none;" d="M335 44L338 43L335 44z"/>
<path style="fill:#000400; stroke:none;" d="M330 43L331 47L336 46L330 43z"/>
<path style="fill:#f4d6b2; stroke:none;" d="M336 43L336 44C342.413 45.8516 345.934 48.6311 348 55L344 54L349 56L349 49L352 50C347.91 45.2297 342.18 43.2831 336 43z"/>
<path style="fill:#b6bb9b; stroke:none;" d="M336 44L336 45L341 46L336 44z"/>
<path style="fill:#982b2e; stroke:none;" d="M238 45L234 55C238.131 52.8588 239.974 49.4714 241 45L238 45z"/>
<path style="fill:#5f6889; stroke:none;" d="M257 45C253.686 51.5992 255.33 57.0103 257 64L260 64L259 45L257 45z"/>
<path style="fill:#726a79; stroke:none;" d="M268 45L266 52L267 52L269 51L268 45z"/>
<path style="fill:#676d83; stroke:none;" d="M274 45L271 47C271.505 53.6218 277.803 61.1412 283 65L284 64L276 50L277 50C278.497 55.4125 280.648 58.9033 286 61L285 54L274 45z"/>
<path style="fill:#7c696f; stroke:none;" d="M322 45L325 47L322 45z"/>
<path style="fill:#352116; stroke:none;" d="M336 45L340 49L336 45z"/>
<path style="fill:#272e3e; stroke:none;" d="M259 46L261 56L262 56L259 46z"/>
<path style="fill:#9d7d64; stroke:none;" d="M332 46L335 54L335 55L340 57L336 47L332 46z"/>
<path style="fill:#f5f1d8; stroke:none;" d="M339 46L343 51L339 46z"/>
<path style="fill:#4c1300; stroke:none;" d="M341 46L348 51L341 46z"/>
<path style="fill:#ad90a2; stroke:none;" d="M270 47L269 50L270 47z"/>
<path style="fill:#85858d; stroke:none;" d="M325 47L328 49L325 47z"/>
<path style="fill:#fefeca; stroke:none;" d="M333 47L342 55C340.775 49.8643 338.307 47.4035 333 47z"/>
<path style="fill:#000002; stroke:none;" d="M239 52L238 71C244.457 70.8439 248.444 68.5246 250 62L251 62C251.947 66.989 250.897 69.2999 246 71L250 80L245 81L245 82C248.611 81.8797 249.92 82.5118 251 86L254 84L264 86L257 80L258 77L261 78L258 70L264 72L257 63L255 64L255 48L239 52z"/>
<path style="fill:#4f5666; stroke:none;" d="M318 51L325 52C322.684 49.4416 320.412 47.8634 318 51z"/>
<path style="fill:#e1dcd6; stroke:none;" d="M331 48L330 52L337 54L331 48z"/>
<path style="fill:#35060c; stroke:none;" d="M239 49C236.938 53.2446 233.646 57.1794 239 60L239 52L246 50L239 49z"/>
<path style="fill:#464950; stroke:none;" d="M265 49L265 54L268 50L267 50L267 52L266 52L265 49z"/>
<path style="fill:#d5bec8; stroke:none;" d="M270 49L268 53L270 49z"/>
<path style="fill:#fffdf4; stroke:none;" d="M311 49C300.938 61.0158 294.074 71.0918 293 87L298.385 73.9606L308 56L309 56L309 68L312 67C307.317 76.7448 314.397 85.3187 305 94C304.308 90.7724 302.899 90.9797 300 92C299.403 88.4197 297.428 86.3311 295 90L293 88L292 88L300 96C293.758 97.0554 279.351 107.478 276 113C288.619 112.968 291.133 103.566 301 98L301 101L302 101C313.211 93.5837 316.012 85.8178 315 73L316 73L317 86L342 93L342 92L320.738 82.5008L311 49z"/>
<path style="fill:#9e9d99; stroke:none;" d="M328 49L330 51L330 49L328 49z"/>
<path style="fill:#879a6d; stroke:none;" d="M340 49C341.305 51.08 342.181 51.9406 344 50L340 49z"/>
<path style="fill:#ab373a; stroke:none;" d="M343 49L342 52L343 56L344 56L348 55L348 51L343 49z"/>
<path style="fill:#c4644e; stroke:none;" d="M349 49L349 53L350 53L349 49z"/>
<path style="fill:#2f3451; stroke:none;" d="M276 50L279 56L276 50z"/>
<path style="fill:#ff9489; stroke:none;" d="M351 50L353 52L353 50L351 50z"/>
<path style="fill:#ae9a99; stroke:none;" d="M270 51L272 54L270 51z"/>
<path style="fill:#010825; stroke:none;" d="M299.667 52.3333L300.333 52.6667L299.667 52.3333z"/>
<path style="fill:#4b506e; stroke:none;" d="M301 52L301 53L305 53L301 52z"/>
<path style="fill:#aba8a1; stroke:none;" d="M331 52L332 53L331 52z"/>
<path style="fill:#505362; stroke:none;" d="M253 53L255 60C255.903 56.6634 255.859 55.0654 253 53z"/>
<path style="fill:#feeee1; stroke:none;" d="M267 53L269 63L275 61C273.207 56.7613 271.677 53.9953 267 53z"/>
<path style="fill:#2f2627; stroke:none;" d="M272 53L274 60L277 58L277 57L274 53L272 53z"/>
<path style="fill:#452938; stroke:none;" d="M292 53C292 57.5312 292.708 65.927 289 65L289 73L290 73L290 68L293 69L292 53z"/>
<path style="fill:#06071c; stroke:none;" d="M301 53L301 54L307 54L301 53z"/>
<path style="fill:#848077; stroke:none;" d="M333 53L334 54L333 53z"/>
<path style="fill:#977e6a; stroke:none;" d="M342.333 53.6667L342.667 54.3333L342.333 53.6667z"/>
<path style="fill:#787181; stroke:none;" d="M306 54L307 55L306 54z"/>
<path style="fill:#aebda0; stroke:none;" d="M339.667 54.3333L340.333 54.6667L339.667 54.3333z"/>
<path style="fill:#383639; stroke:none;" d="M313 55L313 56L317 57L313 55z"/>
<path style="fill:#4d5a49; stroke:none;" d="M339 55L340 58L337 57L337 58L342 59L342 55L339 55z"/>
<path style="fill:#2c1400; stroke:none;" d="M342 55L347 57L347 56L342 55z"/>
<path style="fill:#857b84; stroke:none;" d="M308 56L308 59L309 59L308 56z"/>
<path style="fill:#b5afaf; stroke:none;" d="M312.333 56.6667L312.667 57.3333L312.333 56.6667z"/>
<path style="fill:#c9c8c3; stroke:none;" d="M332 56L333 58L334 58L335 56L332 56z"/>
<path style="fill:#ffbaa1; stroke:none;" d="M352 56L352 57L357 57L352 56z"/>
<path style="fill:#030004; stroke:none;" d="M293 57L296 67L298 67L302 59L293 57z"/>
<path style="fill:#0c0f1e; stroke:none;" d="M301 57L301 58L304 58L301 57z"/>
<path style="fill:#fff6f7; stroke:none;" d="M334 57L338 64C339.429 60.1937 337.67 58.1139 334 57z"/>
<path style="fill:#eefff3; stroke:none;" d="M339 57L340 58L339 57z"/>
<path style="fill:#fdeac2; stroke:none;" d="M341 57L343 69L350 70C346.818 64.2775 349.135 57.9285 341 57z"/>
<path style="fill:#db674e; stroke:none;" d="M352 57L352 58L356 58L352 57z"/>
<path style="fill:#881a27; stroke:none;" d="M235 58L234 63L228 63L229 67L237 66L234 81L235 81C235.017 76.2503 235.208 73.1582 239 70L235 58z"/>
<path style="fill:#0d0000; stroke:none;" d="M276 58C275.93 62.6311 278.804 64.5682 283 66L276 58z"/>
<path style="fill:#05030e; stroke:none;" d="M307.333 58.6667L307.667 59.3333L307.333 58.6667z"/>
<path style="fill:#202239; stroke:none;" d="M255 59L256 64L255 59z"/>
<path style="fill:#dbc5c7; stroke:none;" d="M264 59L261 68L269 64L269 62L264 59z"/>
<path style="fill:#9593a0; stroke:none;" d="M306 59L307 60L306 59z"/>
<path style="fill:#6d6966; stroke:none;" d="M313.333 59.6667L313.667 60.3333L313.333 59.6667z"/>
<path style="fill:#4d4b4c; stroke:none;" d="M334 59L336 63L334 59z"/>
<path style="fill:#313326; stroke:none;" d="M339 59L340 63L342 59L339 59z"/>
<path style="fill:#5e5c72; stroke:none;" d="M306 60L309 83L310 83L312 67L309 68L306 60z"/>
<path style="fill:#a2977b; stroke:none;" d="M342 60L339 62L340 66L344 66L342 60z"/>
<path style="fill:#d7aaad; stroke:none;" d="M271 62L264 72L259 70C260.365 74.6478 264.989 73.1116 269 73L269 77L270 77C270.567 72.9558 269.22 71.3629 266 69L272 68C274.086 64.712 276.411 65.4569 280 66C277.344 62.5442 275.352 61.5188 271 62z"/>
<path style="fill:#352c47; stroke:none;" d="M305 61L295 88C299.459 88.0856 302.814 90.1098 305 94C309.962 90.8144 310.95 85.5635 311 80L310 80L310 83L309 83L307 80L308 86L301 85L304 67L305 67L305 72L306 72L307 61L305 61z"/>
<path style="fill:#ebddc2; stroke:none;" d="M341.333 61.6667L341.667 62.3333L341.333 61.6667z"/>
<path style="fill:#4a4957; stroke:none;" d="M250 62L243 71L245 77L249 77L246 71C251.377 69.9015 253.633 66.6631 250 62z"/>
<path style="fill:#87827f; stroke:none;" d="M300 62L301 63L300 62z"/>
<path style="fill:#83828a; stroke:none;" d="M336 62L336 64L338 62L336 62z"/>
<path style="fill:#3b2c33; stroke:none;" d="M257 64L261 67L259 63L257 64z"/>
<path style="fill:#9d8176; stroke:none;" d="M268 66L272 64L268 66z"/>
<path style="fill:#949959; stroke:none;" d="M345 63L345 68L346 68L345 63z"/>
<path style="fill:#fc8f7b; stroke:none;" d="M348 63L348 66L349 66L348 63z"/>
<path style="fill:#f4ebe2; stroke:none;" d="M272 67L277 65L272 67z"/>
<path style="fill:#dcd1bd; stroke:none;" d="M283 64L286 68L282 71L288 75L289 75C288.996 69.2716 289.022 65.8486 283 64z"/>
<path style="fill:#d8c1b1; stroke:none;" d="M293 64C292.925 70.7185 290.805 76.2733 285 80L287 83L283 88C289.931 84.5912 295.053 73.9842 298 67L293 64z"/>
<path style="fill:#8d7783; stroke:none;" d="M294.333 64.6667L294.667 65.3333L294.333 64.6667z"/>
<path style="fill:#a8a2a6; stroke:none;" d="M314.333 64.6667L314.667 65.3333L314.333 64.6667z"/>
<path style="fill:#514a5a; stroke:none;" d="M336.333 64.6667L336.667 65.3333L336.333 64.6667z"/>
<path style="fill:#73616d; stroke:none;" d="M338.333 64.6667L338.667 65.3333L338.333 64.6667z"/>
<path style="fill:#d5d0bd; stroke:none;" d="M339 64C339.517 66.4584 340.583 67.5234 342 65L339 64z"/>
<path style="fill:#42201e; stroke:none;" d="M265 67L268 65L265 67z"/>
<path style="fill:#a28682; stroke:none;" d="M280 65L286 68L286 67L280 65z"/>
<path style="fill:#5a3f36; stroke:none;" d="M283 65L283 67L285 67L283 65z"/>
<path style="fill:#736d71; stroke:none;" d="M287.667 65.3333L288.333 65.6667L287.667 65.3333z"/>
<path style="fill:#707267; stroke:none;" d="M298 65L299 66L298 65z"/>
<path style="fill:#835227; stroke:none;" d="M346 65L346 68L347 68L346 65z"/>
<path style="fill:#ff909b; stroke:none;" d="M235.667 66.3333L236.333 66.6667L235.667 66.3333z"/>
<path style="fill:#3d3145; stroke:none;" d="M274 66L274 67L275 72L282 68L274 66z"/>
<path style="fill:#65694e; stroke:none;" d="M342 66L340 68L340 69C342.251 68.5267 343.118 68.1397 342 66z"/>
<path style="fill:#b28687; stroke:none;" d="M261 69L266 67L261 69z"/>
<path style="fill:#030100; stroke:none;" d="M270 70L276 68L270 70z"/>
<path style="fill:#000300; stroke:none;" d="M304 67L301 77L304 85C309.481 79.9301 306.95 72.9898 304 67z"/>
<path style="fill:#afae90; stroke:none;" d="M338 68L338 69L342 68L338 68z"/>
<path style="fill:#8a6366; stroke:none;" d="M266 69L266 70L271 69L266 69z"/>
<path style="fill:#958e95; stroke:none;" d="M274 68L276 70L276 68L274 68z"/>
<path style="fill:#656074; stroke:none;" d="M278 68L274 71L277 76C281.067 73.8575 282.466 70.5345 278 68z"/>
<path style="fill:#af9d9b; stroke:none;" d="M280 68L283 70L280 68z"/>
<path style="fill:#372420; stroke:none;" d="M282 68L283 69L282 68z"/>
<path style="fill:#200000; stroke:none;" d="M290 68L288 79L289 79L292 68L290 68z"/>
<path style="fill:#395c48; stroke:none;" d="M336.667 68.3333L337.333 68.6667L336.667 68.3333z"/>
<path style="fill:#ecc9cd; stroke:none;" d="M268 69L269 70L268 69z"/>
<path style="fill:#3c2e2d; stroke:none;" d="M268 70L270 74L271 74L272 70L268 70z"/>
<path style="fill:#8e8f81; stroke:none;" d="M272 69L272 71L274 69L272 69z"/>
<path style="fill:#fcf7e1; stroke:none;" d="M274 69L270 77L269 77L269 73L259 73L261 77L259 80L262 83L270 90L271 90L287 83L285 80L288 79C287.079 66.2322 280.258 75.181 273 78L276 74L276 73L274 69z"/>
<path style="fill:#9c6e71; stroke:none;" d="M292 69L292 72L293 72L292 69z"/>
<path style="fill:#fffff1; stroke:none;" d="M339 69L339 70L343 70L339 69z"/>
<path style="fill:#838b66; stroke:none;" d="M343 69L343 70L349 72L343 69z"/>
<path style="fill:#f2c792; stroke:none;" d="M349 70L349 71L355 72L349 70z"/>
<path style="fill:#30202d; stroke:none;" d="M236 71L243 73L243 71L236 71z"/>
<path style="fill:#514a40; stroke:none;" d="M258 70L258 75L259 75L258 70z"/>
<path style="fill:#9d9aab; stroke:none;" d="M309 70L309 74L310 74L309 70z"/>
<path style="fill:#868580; stroke:none;" d="M316.333 70.6667L316.667 71.3333L316.333 70.6667z"/>
<path style="fill:#635650; stroke:none;" d="M339 70L339 71L343 71L339 70z"/>
<path style="fill:#a38a90; stroke:none;" d="M341 72L347 74L345 70L341 72z"/>
<path style="fill:#030015; stroke:none;" d="M278.333 71.6667L278.667 72.3333L278.333 71.6667z"/>
<path style="fill:#8d8ba0; stroke:none;" d="M299 71L300 72L299 71z"/>
<path style="fill:#f5f0ca; stroke:none;" d="M345 71L357 80C354.696 74.7164 350.596 72.0681 345 71z"/>
<path style="fill:#730900; stroke:none;" d="M235 72L237 81L235 72z"/>
<path style="fill:#110205; stroke:none;" d="M236 72L242 91L245 95L246 95L246 78L245 72L236 72z"/>
<path style="fill:#35363a; stroke:none;" d="M251 73L250 74L255 77L255 76L251 73z"/>
<path style="fill:#5f636c; stroke:none;" d="M252 73L252 74L256 75L252 73z"/>
<path style="fill:#e2ded2; stroke:none;" d="M315 73L315 86L316 86C317.298 81.6095 317.66 76.8935 315 73z"/>
<path style="fill:#d78265; stroke:none;" d="M351.667 73.3333L352.333 73.6667L351.667 73.3333z"/>
<path style="fill:#343233; stroke:none;" d="M275 74L277 77L275 74z"/>
<path style="fill:#b09687; stroke:none;" d="M293 74L292 83L293 83L293 74z"/>
<path style="fill:#334a44; stroke:none;" d="M339 77L344 75L339 77z"/>
<path style="fill:#030007; stroke:none;" d="M326 85L339 89L338 79L351 78C344.704 70.4666 331.97 80.0019 326 85z"/>
<path style="fill:#a93951; stroke:none;" d="M236 75L240 86L241 86L236 75z"/>
<path style="fill:#87936d; stroke:none;" d="M349 75L350 76L349 75z"/>
<path style="fill:#6c101d; stroke:none;" d="M238 76L239 81L240 81L238 76z"/>
<path style="fill:#ae9b9f; stroke:none;" d="M246 76L249 79L246 76z"/>
<path style="fill:#63605b; stroke:none;" d="M273 76L276 78L273 76z"/>
<path style="fill:#b0aac4; stroke:none;" d="M310.333 76.6667L310.667 77.3333L310.333 76.6667z"/>
<path style="fill:#817684; stroke:none;" d="M318 76L319 77L318 76z"/>
<path style="fill:#65545c; stroke:none;" d="M254 77L257 79L254 77z"/>
<path style="fill:#968385; stroke:none;" d="M258.333 77.6667L258.667 78.3333L258.333 77.6667z"/>
<path style="fill:#b6a3a5; stroke:none;" d="M302 77L301 85C304.26 82.862 303.893 80.1837 302 77z"/>
<path style="fill:#474b4c; stroke:none;" d="M337.667 77.3333L338.333 77.6667L337.667 77.3333z"/>
<path style="fill:#ecb193; stroke:none;" d="M344 78L345 85L346 85L349 77L344 78z"/>
<path style="fill:#685455; stroke:none;" d="M244 78L244 85L245 85L247 82L250 80L244 78z"/>
<path style="fill:#ffd9cd; stroke:none;" d="M291 78C289.088 81.2249 287.2 86.4154 283 86L282 86L271 90L270 90L255 85L251 94C257.55 94.0768 259.385 95.5186 258 102L268 103L268 104L261 106L261 107L266 109L264 115L284 107L283 105C292.312 101.352 290.784 92.4654 291 84L292 84L295 90L294 83L291 78z"/>
<path style="fill:#64473f; stroke:none;" d="M303.333 78.6667L303.667 79.3333L303.333 78.6667z"/>
<path style="fill:#b8b6bb; stroke:none;" d="M319 78L319 82L320 82L319 78z"/>
<path style="fill:#756a70; stroke:none;" d="M335.667 78.3333L336.333 78.6667L335.667 78.3333z"/>
<path style="fill:#8f865f; stroke:none;" d="M340 78L340 86L341 86L344 79L340 78z"/>
<path style="fill:#4b3b3e; stroke:none;" d="M257.667 79.3333L258.333 79.6667L257.667 79.3333z"/>
<path style="fill:#575558; stroke:none;" d="M333.667 79.3333L334.333 79.6667L333.667 79.3333z"/>
<path style="fill:#735557; stroke:none;" d="M338 79L338 82L339 82L338 79z"/>
<path style="fill:#ffefcc; stroke:none;" d="M341 79L339 90L372 104L348 116L348 117L376 105L376 104L344 90L345 79L341 79z"/>
<path style="fill:#434051; stroke:none;" d="M320 80L320 84L328 84L328 83L320 80z"/>
<path style="fill:#443e4a; stroke:none;" d="M328 82L328 83L333 81L328 82z"/>
<path style="fill:#f1c4be; stroke:none;" d="M339 80L339 83L340 83L339 80z"/>
<path style="fill:#a50005; stroke:none;" d="M235 81L235 85L238 81L235 81z"/>
<path style="fill:#555057; stroke:none;" d="M247 81L247 82L249 85L250 85L251 82L247 81z"/>
<path style="fill:#807c70; stroke:none;" d="M261 81L264 83L261 81z"/>
<path style="fill:#cec6d1; stroke:none;" d="M311 81L311 85L312 85L311 81z"/>
<path style="fill:#faf5fb; stroke:none;" d="M247 82L248 88L249 88L249 82L247 82z"/>
<path style="fill:#9d92a3; stroke:none;" d="M307 82L305 86C307.649 85.4324 308.355 84.4122 307 82z"/>
<path style="fill:#ac8990; stroke:none;" d="M245 83C245.133 87.0031 245.572 89.4493 250 89L247 83L245 83z"/>
<path style="fill:#87888c; stroke:none;" d="M248.333 83.6667L248.667 84.3333L248.333 83.6667z"/>
<path style="fill:#7a7579; stroke:none;" d="M250 83L249 86L250 83z"/>
<path style="fill:#590c1c; stroke:none;" d="M241 84L239 85L241 92L241 84z"/>
<path style="fill:#b08688; stroke:none;" d="M254 84L251 86L251 93L252 93L256 84L254 84z"/>
<path style="fill:#999385; stroke:none;" d="M263 84L264 85L263 84z"/>
<path style="fill:#cdaaa4; stroke:none;" d="M291 84L290 93L294 93L294 92L291 84z"/>
<path style="fill:#b4b5ba; stroke:none;" d="M323 84L323 85L327 86L327 85L323 84z"/>
<path style="fill:#b4ac9f; stroke:none;" d="M257 85L257 86L262 86L257 85z"/>
<path style="fill:#66646f; stroke:none;" d="M316 85L315 88L318 86L316 85z"/>
<path style="fill:#424c29; stroke:none;" d="M339 85L339 88L340 88L339 85z"/>
<path style="fill:#4c2d33; stroke:none;" d="M249 86L249 88L251 88L251 86L249 86z"/>
<path style="fill:#534739; stroke:none;" d="M263.667 86.3333L264.333 86.6667L263.667 86.3333z"/>
<path style="fill:#9c9cb4; stroke:none;" d="M315 90C319.368 89.1707 321.658 89.4863 323 94L322 94L322 92L321 92C322.558 96.6954 328.542 97.0848 333 98C333 94.3064 338.876 94.0822 342 94C336.661 89.7329 319.528 82.3292 315 90z"/>
<path style="fill:#a39789; stroke:none;" d="M264.667 87.3333L265.333 87.6667L264.667 87.3333z"/>
<path style="fill:#594e54; stroke:none;" d="M294.333 87.6667L294.667 88.3333L294.333 87.6667z"/>
<path style="fill:#a6a5aa; stroke:none;" d="M314 87L315 88L314 87z"/>
<path style="fill:#ee9e9f; stroke:none;" d="M246 89L256 118C260.931 116.053 264.561 114.338 266 109L257 104L262 103L262 102L258 102L259 98C257.194 96.4486 256.837 96.1369 259 95L259 94L251 94L256 100C250.32 97.1956 250.577 93.5701 252 88L246 89z"/>
<path style="fill:#83859a; stroke:none;" d="M314 88L293 109C301.081 108.48 312.528 113.275 315 103L311 103L324 97L324 96L321 92L322 92L322 94L323 94C322.047 88.0425 318.637 89.5702 314 88z"/>
<path style="fill:#646b73; stroke:none;" d="M300 89L300 92L303 91L303 90L300 89z"/>
<path style="fill:#423f3a; stroke:none;" d="M337.667 89.3333L338.333 89.6667L337.667 89.3333z"/>
<path style="fill:#9d0000; stroke:none;" d="M237 93L241 91L237 93z"/>
<path style="fill:#a4a5a9; stroke:none;" d="M308 90L309 91L308 90z"/>
<path style="fill:#7b7e61; stroke:none;" d="M339.667 90.3333L340.333 90.6667L339.667 90.3333z"/>
<path style="fill:#aa2b25; stroke:none;" d="M242 91L245 95L244 91L242 91z"/>
<path style="fill:#905148; stroke:none;" d="M246 91L246 99L247 99L246 91z"/>
<path style="fill:#ae9a91; stroke:none;" d="M341 91L341 92L352 96L352 95L341 91z"/>
<path style="fill:#945051; stroke:none;" d="M250 92L253 99L254 98L250 92z"/>
<path style="fill:#d6d8d3; stroke:none;" d="M342 92L341 97L342 97L353 99L342 92z"/>
<path style="fill:#412428; stroke:none;" d="M291 93L291 94L297 96L291 93z"/>
<path style="fill:#d0b2a7; stroke:none;" d="M290 94L290 101L297 97L290 94z"/>
<path style="fill:#b1a694; stroke:none;" d="M297 96L300 96L298 94L297 96z"/>
<path style="fill:#f2ffff; stroke:none;" d="M332 97C336.333 98.946 338.82 98.3083 341 94L332 97z"/>
<path style="fill:#b69189; stroke:none;" d="M256 95L260 97L256 95z"/>
<path style="fill:#fdf9ed; stroke:none;" d="M342 95C335.801 109.923 358.647 104.317 366 104C359.998 98.5798 349.783 96.6041 342 95z"/>
<path style="fill:#5f6575; stroke:none;" d="M324 96L324 97L328 97L328 98L322 99L322 100L337 104L337 101L341 96L324 96z"/>
<path style="fill:#a39b86; stroke:none;" d="M352 96L352 97L356 98L356 97L352 96z"/>
<path style="fill:#000208; stroke:none;" d="M312 101L321 101L326 107L328 101L322 100L322 99L328 98C322.395 95.6489 316.932 98.1353 312 101z"/>
<path style="fill:#3f140d; stroke:none;" d="M253 98L253 100L256 100L256 98L253 98z"/>
<path style="fill:#726d69; stroke:none;" d="M299 98L300 101L301 101L301 98L299 98z"/>
<path style="fill:#97a085; stroke:none;" d="M356 98L356 99L365 102L365 101L356 98z"/>
<path style="fill:#cfadae; stroke:none;" d="M297 99L294 105L299 99L297 99z"/>
<path style="fill:#060700; stroke:none;" d="M299.333 99.6667L299.667 100.333L299.333 99.6667z"/>
<path style="fill:#8e1318; stroke:none;" d="M246 100L251 112L252 112L246 100z"/>
<path style="fill:#39262c; stroke:none;" d="M326 100L326 101L331 102L331 101L326 100z"/>
<path style="fill:#3b3951; stroke:none;" d="M338 100L337 104L331 102L331 103C333.985 105.156 338.831 109.279 342 106L347 107L338 100z"/>
<path style="fill:#8a8ba0; stroke:none;" d="M339.333 100.667L339.667 101.333L339.333 100.667z"/>
<path style="fill:#e49181; stroke:none;" d="M366.667 100.333L367.333 100.667L366.667 100.333z"/>
<path style="fill:#937167; stroke:none;" d="M268 102L268 103L272 103L268 102z"/>
<path style="fill:#45281a; stroke:none;" d="M271 101L272 102L271 101z"/>
<path style="fill:#896a56; stroke:none;" d="M289.667 101.333L290.333 101.667L289.667 101.333z"/>
<path style="fill:#614c53; stroke:none;" d="M295 105L300 101L295 105z"/>
<path style="fill:#cbbed0; stroke:none;" d="M299 103L302 101L299 103z"/>
<path style="fill:#434f5b; stroke:none;" d="M311 101L314 103L314 102L311 101z"/>
<path style="fill:#49405d; stroke:none;" d="M315 103L316 107L323 107L324 110L325 110L325 106L321 101L315 103z"/>
<path style="fill:#bda696; stroke:none;" d="M283 105L283 106L290 103L283 105z"/>
<path style="fill:#f5fad1; stroke:none;" d="M328 102L327 108L331 108L333 104L328 102z"/>
<path style="fill:#878aa9; stroke:none;" d="M365 102L355 105L355 108C349.278 108.5 335.451 111.467 332 116L331 116C327.688 111.728 323.013 115.285 319 117L321 114L317 119C338.436 119 351.619 112.069 371 104L365 102z"/>
<path style="fill:#7a5856; stroke:none;" d="M260 106L261 106L268 104C265.026 102.286 260.82 102.172 260 106z"/>
<path style="fill:#fae1f4; stroke:none;" d="M298 103L299 104L298 103z"/>
<path style="fill:#996066; stroke:none;" d="M257.333 104.667L257.667 105.333L257.333 104.667z"/>
<path style="fill:#511f22; stroke:none;" d="M258 104L260 107L260 104L258 104z"/>
<path style="fill:#caa9a4; stroke:none;" d="M261 106L265 105L261 106z"/>
<path style="fill:#ffffef; stroke:none;" d="M315 104C307.454 120.049 331.253 109.384 316 107L317 104L315 104z"/>
<path style="fill:#63654d; stroke:none;" d="M327 104L328 105L327 104z"/>
<path style="fill:#974d40; stroke:none;" d="M333 104L332 109L336 107L333 104z"/>
<path style="fill:#26360f; stroke:none;" d="M369.667 104.333L370.333 104.667L369.667 104.333z"/>
<path style="fill:#939669; stroke:none;" d="M371 104L372 105L371 104z"/>
<path style="fill:#c4cac6; stroke:none;" d="M290 108L293 105L290 108z"/>
<path style="fill:#4f3b46; stroke:none;" d="M301 110L301 109L293 109L295 105C287.873 109.096 297.488 109.997 301 110z"/>
<path style="fill:#c5b4c6; stroke:none;" d="M295 105L295 107L297 105L295 105z"/>
<path style="fill:#b1a881; stroke:none;" d="M331 105L327 108L327 109L332 109L333 105L331 105z"/>
<path style="fill:#979797; stroke:none;" d="M346.667 105.333L347.333 105.667L346.667 105.333z"/>
<path style="fill:#6a765e; stroke:none;" d="M357 109L357 110L369 106L357 109z"/>
<path style="fill:#f9f6fd; stroke:none;" d="M294 106L295 107L294 106z"/>
<path style="fill:#8996a6; stroke:none;" d="M324 108L327 106L324 108z"/>
<path style="fill:#06000b; stroke:none;" d="M326 111L326 113L332 116L353 108L353 107L342 106L326 111z"/>
<path style="fill:#546473; stroke:none;" d="M350 106L350 107L355 108L350 106z"/>
<path style="fill:#272b46; stroke:none;" d="M322 107L325 113L326 113L330 110L330 109L324 110L322 107z"/>
<path style="fill:#120000; stroke:none;" d="M286 113L292 108L286 113z"/>
<path style="fill:#6b2b29; stroke:none;" d="M260 109L263 111L263 110L260 109z"/>
<path style="fill:#a58a7f; stroke:none;" d="M276 111L279 109L276 111z"/>
<path style="fill:#281c1e; stroke:none;" d="M301 109L301 110L302 112L308 114L307 109L301 109z"/>
<path style="fill:#9d9a89; stroke:none;" d="M287 110L288 111L287 110z"/>
<path style="fill:#a47a86; stroke:none;" d="M292 110L292 111L303 111L292 110z"/>
<path style="fill:#180001; stroke:none;" d="M307 113L317 118C316.146 113.936 308.614 105.466 307 113z"/>
<path style="fill:#3e3c49; stroke:none;" d="M311.667 110.333L312.333 110.667L311.667 110.333z"/>
<path style="fill:#494430; stroke:none;" d="M347 115L347 116L360 111L347 115z"/>
<path style="fill:#987b75; stroke:none;" d="M273 113L276 111L273 113z"/>
<path style="fill:#8b8c7c; stroke:none;" d="M286 111L287 112L286 111z"/>
<path style="fill:#e09899; stroke:none;" d="M287 125L288 125L297.491 120.157L304 113C293.535 106.789 287.091 114.789 287 125z"/>
<path style="fill:#f7cfc7; stroke:none;" d="M304 111L298 121L306 122L306 119C309.846 117.649 311.604 116.168 311 112L305 115L306 111L304 111z"/>
<path style="fill:#ab412b; stroke:none;" d="M359 113L359 114L365 112L359 113z"/>
<path style="fill:#ffd9d3; stroke:none;" d="M270 115L270 116C275.825 116 280.985 116.82 285 112L270 115z"/>
<path style="fill:#858176; stroke:none;" d="M285 112L286 113L285 112z"/>
<path style="fill:#cda3a4; stroke:none;" d="M288 112L287 114L289 114L288 112z"/>
<path style="fill:#7c484a; stroke:none;" d="M289.333 112.667L289.667 113.333L289.333 112.667z"/>
<path style="fill:#9799a5; stroke:none;" d="M322 112L323 113L322 112z"/>
<path style="fill:#0a0917; stroke:none;" d="M321 116L326 114C323.327 112.473 322.438 113.414 321 116z"/>
<path style="fill:#615b65; stroke:none;" d="M338 112L338 113L342 113L338 112z"/>
<path style="fill:#9d1d1e; stroke:none;" d="M253 113L252 127L253 127L258 120L258 119L253 113z"/>
<path style="fill:#6c4b44; stroke:none;" d="M267 115L267 116L273 114L267 115z"/>
<path style="fill:#61524d; stroke:none;" d="M283 115L284 116L287 113L283 115z"/>
<path style="fill:#8c6464; stroke:none;" d="M305.333 113.667L305.667 114.333L305.333 113.667z"/>
<path style="fill:#8a7c79; stroke:none;" d="M312 113L310 118L312 113z"/>
<path style="fill:#9597a4; stroke:none;" d="M321 113L322 114L321 113z"/>
<path style="fill:#483c48; stroke:none;" d="M333.667 113.333L334.333 113.667L333.667 113.333z"/>
<path style="fill:#fff7e7; stroke:none;" d="M262 117L262 121C266.237 122.009 275.765 124.23 279 121L284 123L288 114L262 117z"/>
<path style="fill:#684a48; stroke:none;" d="M288 114L285 117C286.29 124.273 284.888 132.228 282 139L287 141L287 135L288 114z"/>
<path style="fill:#766e79; stroke:none;" d="M316.333 114.667L316.667 115.333L316.333 114.667z"/>
<path style="fill:#ad3e33; stroke:none;" d="M352 117L359 117L359 114L352 117z"/>
<path style="fill:#b47f79; stroke:none;" d="M257 119L267 116C262.828 114.27 259.777 115.665 257 119z"/>
<path style="fill:#c7afa5; stroke:none;" d="M263 116L263 117L281 117L263 116z"/>
<path style="fill:#2c2616; stroke:none;" d="M281 117L284 115L281 117z"/>
<path style="fill:#403c4d; stroke:none;" d="M320 115L319 117L321 117L320 115z"/>
<path style="fill:#714a65; stroke:none;" d="M344 115L347 117L347 118C332.465 125.563 331.604 155.765 313 154L318 156L320 162L323 156L324 156C322.722 164.419 319.448 171.113 314.076 177.91C310.313 182.671 305.261 185.764 304 192L319.153 185.816L321 194C325.86 192.877 326.699 195.764 328 200L330 200L338.36 180.715L335.228 171L332 142L333 142L338 158C353.47 155.128 364.661 143.501 378 135L378 134L338 147C339.655 136.573 348.623 125.879 358 121L358 120L348 119L344 115z"/>
<path style="fill:#f69b98; stroke:none;" d="M241 154L239 152C235.309 160.024 243.178 159.144 248 156C250.019 162.576 254.964 162.579 259.606 157.671C263.103 153.974 268.627 136.896 265 133L265 132L273 130L272 137L266 140L277 141L275 129C272.444 129 256.71 127.289 264 123L262 121L262 117C252.052 121.74 243.475 143.581 241 154z"/>
<path style="fill:#f6dbea; stroke:none;" d="M297 128L306 138L319 125C314.02 110.647 304.808 124.556 297 128z"/>
<path style="fill:#485462; stroke:none;" d="M338 118L338 119L344 118L338 118z"/>
<path style="fill:#9fa9ab; stroke:none;" d="M344.333 117.667L344.667 118.333L344.333 117.667z"/>
<path style="fill:#dbdcd6; stroke:none;" d="M345.667 117.333L346.333 117.667L345.667 117.333z"/>
<path style="fill:#a27b7c; stroke:none;" d="M348 117L348 119L353 119L353 117L348 117z"/>
<path style="fill:#bdaca4; stroke:none;" d="M355 120L360 118L355 120z"/>
<path style="fill:#e67660; stroke:none;" d="M360.667 117.333L361.333 117.667L360.667 117.333z"/>
<path style="fill:#a48b84; stroke:none;" d="M306 119L306 120L310 119L306 119z"/>
<path style="fill:#4f4256; stroke:none;" d="M315 118L319 120L315 118z"/>
<path style="fill:#a07974; stroke:none;" d="M330 121L330 122L335 123L336 123L340 121C336.746 118.138 333.792 119.515 330 121z"/>
<path style="fill:#d8e2e4; stroke:none;" d="M342.667 118.333L343.333 118.667L342.667 118.333z"/>
<path style="fill:#ffdcd5; stroke:none;" d="M353.667 118.333L354.333 118.667L353.667 118.333z"/>
<path style="fill:#716042; stroke:none;" d="M357 118L357 119L360 119L357 118z"/>
<path style="fill:#ffedbf; stroke:none;" d="M360 118L360 119L385 131C379.204 123.987 369.038 118.901 360 118z"/>
<path style="fill:#f4ddcd; stroke:none;" d="M285 119L284 123L279 121L269 122L269 123L272 123L272 124L261 123C262.894 129.864 269.039 129 275 129L276 139L278 124L279 124L283 134L284 134L285 119z"/>
<path style="fill:#6f6a66; stroke:none;" d="M318 122L321 120L325 123L328 122L328 120C324.083 118.845 320.405 118.29 318 122z"/>
<path style="fill:#4d3944; stroke:none;" d="M327 119L327 120L335 120L327 119z"/>
<path style="fill:#f2e4d9; stroke:none;" d="M339 119L339 120L342 120L339 119z"/>
<path style="fill:#81807c; stroke:none;" d="M342 119L343 120L342 119z"/>
<path style="fill:#300011; stroke:none;" d="M334 123L334 124L345 120L334 123z"/>
<path style="fill:#f4ece1; stroke:none;" d="M356 119L356 120L362 121L356 119z"/>
<path style="fill:#605e38; stroke:none;" d="M360 119L360 120L365 121L365 120L360 119z"/>
<path style="fill:#f3997f; stroke:none;" d="M366.667 119.333L367.333 119.667L366.667 119.333z"/>
<path style="fill:#0d0f1c; stroke:none;" d="M321 120L320 125L323 120L321 120z"/>
<path style="fill:#351c06; stroke:none;" d="M328 120L331 123L328 120z"/>
<path style="fill:#96615d; stroke:none;" d="M295 121L295 122L299 122L295 121z"/>
<path style="fill:#bb9892; stroke:none;" d="M299 121L299 122L303 122L299 121z"/>
<path style="fill:#887676; stroke:none;" d="M303 121L302 126L305 121L303 121z"/>
<path style="fill:#bdb4c7; stroke:none;" d="M319 121L320 124L319 121z"/>
<path style="fill:#fcfffd; stroke:none;" d="M323 121L323 122L326 122L323 121z"/>
<path style="fill:#fff3d5; stroke:none;" d="M331 122L331 123L335 121L331 122z"/>
<path style="fill:#7f4031; stroke:none;" d="M336 121L336 122L339 122L336 121z"/>
<path style="fill:#0a1527; stroke:none;" d="M338 147C349.754 146.245 368.521 140.055 378 133C372.478 128.819 365.409 121.687 358.001 121.604C348.31 121.496 338.53 138.787 338 147z"/>
<path style="fill:#ab9799; stroke:none;" d="M359 121L359 122L362 122L359 121z"/>
<path style="fill:#f8f8dc; stroke:none;" d="M362 121L362 122L381 133C377.448 127.42 368.43 122.243 362 121z"/>
<path style="fill:#433b26; stroke:none;" d="M365.667 121.333L366.333 121.667L365.667 121.333z"/>
<path style="fill:#ae9d8d; stroke:none;" d="M263 123L263 124L269 123L263 123z"/>
<path style="fill:#cc989a; stroke:none;" d="M285 122L285 125L286 125L285 122z"/>
<path style="fill:#b37e78; stroke:none;" d="M288 123L287 127L295 123L288 123z"/>
<path style="fill:#ffdbd8; stroke:none;" d="M287 130C292.899 129.694 299.972 127.336 303 122C296.543 122.019 289.019 122.788 287 130z"/>
<path style="fill:#a0a39c; stroke:none;" d="M323.667 122.333L324.333 122.667L323.667 122.333z"/>
<path style="fill:#fdf9ee; stroke:none;" d="M322 125L322 126L332 124L322 125z"/>
<path style="fill:#716068; stroke:none;" d="M361.667 122.333L362.333 122.667L361.667 122.333z"/>
<path style="fill:#5a6140; stroke:none;" d="M367 122L370 124L367 122z"/>
<path style="fill:#3d3423; stroke:none;" d="M266 123L266 124L269 124L266 123z"/>
<path style="fill:#887a6d; stroke:none;" d="M269 123L269 124L272 124L269 123z"/>
<path style="fill:#a398a6; stroke:none;" d="M322 123L320 126L324 124L322 123z"/>
<path style="fill:#46473f; stroke:none;" d="M323.667 123.333L324.333 123.667L323.667 123.333z"/>
<path style="fill:#9a785c; stroke:none;" d="M331 123L331 124L334 124L331 123z"/>
<path style="fill:#a2766b; stroke:none;" d="M278 124L278 133L279 133L278 124z"/>
<path style="fill:#4c444f; stroke:none;" d="M319.333 124.667L319.667 125.333L319.333 124.667z"/>
<path style="fill:#010207; stroke:none;" d="M309 140L309 138C287.368 154.706 289.037 193.2 278 216C275.019 203.481 278.345 184.805 283.286 173.039C288.445 160.756 295.905 160.206 290 146L289 146C279.706 164.569 268.177 179.481 249 189L247 185L246 185L240 190L246 172L230 182C230.794 187.295 232.419 191.057 237 194C226.523 197.167 207.075 201.439 202 212L212 207C204.524 216.494 197.762 223.158 186 226C190.364 237.938 200.257 229.826 209 228.389C218.216 226.874 226.871 227.902 236 225C245.265 222.055 254.787 213.74 266 217.333C270.494 218.774 270.14 224.21 271 228C273.202 237.708 276.985 245.341 281.556 254C283.02 256.775 292.073 271.992 294 263C287.013 262.089 289.693 255.675 296 256L296 266L346 266C346 249.989 352.386 240.169 359 226C362.402 227.969 372.767 237.31 370 241L380 249C371.083 247.17 362.241 248.252 360 259L379 257.292L397 266L397 261C388.225 256.303 381.684 255.907 385 245L375 242C373.364 233.562 371.282 224.63 372.285 216C373.333 206.998 370.23 194.373 375.988 186.314C379.362 181.592 390.776 182.397 396 181.718C409.637 179.947 430.209 182.612 442 190.133C453.106 197.217 460.763 209.077 474 213C474 208.891 475.672 200.082 472.972 196.742C470.782 194.033 462.406 192.901 459 191.022C447.761 184.824 442.586 175.754 429 174L434 169L434 168L419.09 169.698L385 158L385 157L400 154L400 153L360 156C366.542 141.17 382.862 142.892 396 139L391 131C384.394 134.674 376.839 134.994 370.015 139.144C358.186 146.339 350.912 156.416 337 159L335 152L334 152L337.945 179.83L331.245 196L323.437 215.39L311 223L311 224L324 219L316 256C309.381 247.313 293.461 234.988 292.99 224C292.757 218.564 291.536 212.062 298 210C294.236 188.764 322.939 177.075 324 156L323 156C315.714 177.397 295.184 188.573 286 208L285 208C286.538 188.678 295.905 176.435 308 162L313 165C312.058 162.712 311.437 162.342 314 162L314 161L311 161L313 154C327.15 156.468 334.945 134.694 339 124C328.669 124.093 316.867 133.552 309 140z"/>
<path style="fill:#647a53; stroke:none;" d="M370 124L373 126L370 124z"/>
<path style="fill:#c63a19; stroke:none;" d="M380 124C381.341 131.16 395.392 132.554 401 137C398.973 127.817 387.103 129.632 380 124z"/>
<path style="fill:#61464b; stroke:none;" d="M293 129L293 130L302 126L293 129z"/>
<path style="fill:#766d72; stroke:none;" d="M305.667 125.333L306.333 125.667L305.667 125.333z"/>
<path style="fill:#ccbcbf; stroke:none;" d="M307.667 125.333L308.333 125.667L307.667 125.333z"/>
<path style="fill:#baa9bc; stroke:none;" d="M317 125L316 129L317 129L317 125z"/>
<path style="fill:#888389; stroke:none;" d="M318 125L318 128L320 127L320 126L318 125z"/>
<path style="fill:#716a71; stroke:none;" d="M304 126L306 129L304 126z"/>
<path style="fill:#333037; stroke:none;" d="M305 128L309 127L305 128z"/>
<path style="fill:#6e6175; stroke:none;" d="M320 126L309 140L327 127L320 126z"/>
<path style="fill:#aea6a4; stroke:none;" d="M322 126L322 127L329 127L322 126z"/>
<path style="fill:#676439; stroke:none;" d="M373.667 126.333L374.333 126.667L373.667 126.333z"/>
<path style="fill:#cfc4ca; stroke:none;" d="M306 129L309 128L306 129z"/>
<path style="fill:#9c8e8b; stroke:none;" d="M370 127L371 128L370 127z"/>
<path style="fill:#333607; stroke:none;" d="M375 127L376 128L375 127z"/>
<path style="fill:#d5b095; stroke:none;" d="M286 128L286 134L290 130L288 128L286 128z"/>
<path style="fill:#3f3037; stroke:none;" d="M306 132L307 132L310 129L306 132z"/>
<path style="fill:#2b1a2d; stroke:none;" d="M309 138L319 128L309 138z"/>
<path style="fill:#8a8a82; stroke:none;" d="M371 128L372 129L371 128z"/>
<path style="fill:#8d8959; stroke:none;" d="M376 128L376 129L381 131L381 130L376 128z"/>
<path style="fill:#8d1a15; stroke:none;" d="M251 129L250 133L251 133L251 129z"/>
<path style="fill:#080100; stroke:none;" d="M279 129C277.671 139.462 275.54 142.411 265 141C264.57 150.42 260.673 156.744 253 162L253 163C265.869 159.293 274.09 150.254 282 140L279 129z"/>
<path style="fill:#8c6876; stroke:none;" d="M288 133C291.451 133.133 293.065 132.609 293 129L288 133z"/>
<path style="fill:#947a9d; stroke:none;" d="M295 129L285 136C286.914 144.364 290.983 150.169 299 153L314 131L306 138L295 129z"/>
<path style="fill:#78626f; stroke:none;" d="M308 129L308 130L311 130L308 129z"/>
<path style="fill:#878a83; stroke:none;" d="M372 129L373 130L372 129z"/>
<path style="fill:#976f63; stroke:none;" d="M271 130L270 131L271 137L272 137L273 130L271 130z"/>
<path style="fill:#e39394; stroke:none;" d="M280 130L280 139C284.547 136.466 283.528 133.127 280 130z"/>
<path style="fill:#b6ad90; stroke:none;" d="M385 130L381 133L385 130z"/>
<path style="fill:#88676e; stroke:none;" d="M383 132L383 133L390 131L383 132z"/>
<path style="fill:#e1969d; stroke:none;" d="M387.667 131.333L388.333 131.667L387.667 131.333z"/>
<path style="fill:#ffeacd; stroke:none;" d="M391 131C394.14 136.301 397.9 138.463 404 139L391 131z"/>
<path style="fill:#190000; stroke:none;" d="M265 132L265 133L266 138L271 132L265 132z"/>
<path style="fill:#840808; stroke:none;" d="M249 133L246 141L247 141L249 133z"/>
<path style="fill:#2e1322; stroke:none;" d="M285 135L285 136L290 133L285 135z"/>
<path style="fill:#4d4c52; stroke:none;" d="M378 133L378 134L382 134L378 133z"/>
<path style="fill:#523c2e; stroke:none;" d="M269.667 136.333L270.333 136.667L269.667 136.333z"/>
<path style="fill:#a88a88; stroke:none;" d="M277 136L277 139L278 139L277 136z"/>
<path style="fill:#877a6a; stroke:none;" d="M394 136L395 137L394 136z"/>
<path style="fill:#b23227; stroke:none;" d="M401 137L401 138L415 141L413 136L401 137z"/>
<path style="fill:#af645e; stroke:none;" d="M265 137L267 141L265 137z"/>
<path style="fill:#8c988a; stroke:none;" d="M395 137C397.933 141.185 403.185 141.753 408 141L408 140L395 137z"/>
<path style="fill:#ffe0c4; stroke:none;" d="M242 187L243 187L256.418 165.299L270 157.752L286 142C280.663 137.059 273.831 149.266 270 152.985C264.464 158.358 257.023 159.87 251.418 164.803C245.812 169.738 243.198 179.949 242 187z"/>
<path style="fill:#5b4866; stroke:none;" d="M360 156L400 153L400 154L387 157L387 158C400.32 162.884 411.702 165.57 426 164L423 158L445 158C438.369 155.847 435.264 151.639 428.91 148.55C413.854 141.23 395.136 138.074 379 142.127C370.572 144.243 362.702 146.929 360 156z"/>
<path style="fill:#fcc9b4; stroke:none;" d="M404 139L404 140L408 140L404 139z"/>
<path style="fill:#d1bfb5; stroke:none;" d="M406 141L406 142L419 143L419 144L417 144L417 145L426 145L426 146L424 147L429 148C424.296 141.451 413.573 139.26 406 141z"/>
<path style="fill:#810b09; stroke:none;" d="M245.333 141.667L245.667 142.333L245.333 141.667z"/>
<path style="fill:#642a36; stroke:none;" d="M268 141L268 142L271 142L268 141z"/>
<path style="fill:#791d20; stroke:none;" d="M286 141L285 142L288 148L289 148L286 141z"/>
<path style="fill:#937e6d; stroke:none;" d="M409 141C411.452 144.234 415.147 144.398 419 144L409 141z"/>
<path style="fill:#7e675f; stroke:none;" d="M272 142L272 143L275 143L272 142z"/>
<path style="fill:#412740; stroke:none;" d="M332 142L333 157L334 157L332 142z"/>
<path style="fill:#c1301f; stroke:none;" d="M420 142L420 143L474 161L463 152C455.637 153.533 446.298 150.559 441 145L420 142z"/>
<path style="fill:#7a0201; stroke:none;" d="M244 143L243 147L244 147L244 143z"/>
<path style="fill:#bb3637; stroke:none;" d="M283 146L286 145L287 149C288.079 145.61 285.554 142.381 283 146z"/>
<path style="fill:#7f5b5b; stroke:none;" d="M264 144L264 147L265 147L264 144z"/>
<path style="fill:#878d67; stroke:none;" d="M278 144L279 145L278 144z"/>
<path style="fill:#867764; stroke:none;" d="M420 144L420 145L423 145L420 144z"/>
<path style="fill:#e11c25; stroke:none;" d="M254 170L251 173L252 181C256.206 180.53 258.797 179.498 259 175C262.129 174.502 266.054 175.427 268.91 173.958C276.558 170.023 287.935 153.456 286 145L275 155.667L257 163.5L254 170z"/>
<path style="fill:#9d9d95; stroke:none;" d="M420 145L420 146L426 146L420 145z"/>
<path style="fill:#ffddc1; stroke:none;" d="M427 145L427 146L432 147L430 148L430 149L455 156C450.614 149.572 434.527 145.657 427 145z"/>
<path style="fill:#917166; stroke:none;" d="M427 146L427 147L429 149L430 149L432 148L432 147L427 146z"/>
<path style="fill:#640b03; stroke:none;" d="M242 147L240 150L242 147z"/>
<path style="fill:#ab3517; stroke:none;" d="M281 147L278 152L281 147z"/>
<path style="fill:#872735; stroke:none;" d="M239 148L235 155L242 151L239 148z"/>
<path style="fill:#99937d; stroke:none;" d="M433 148L433 149L438 150L438 149L433 148z"/>
<path style="fill:#969c92; stroke:none;" d="M431.667 149.333L432.333 149.667L431.667 149.333z"/>
<path style="fill:#ecebd7; stroke:none;" d="M433.667 149.333L434.333 149.667L433.667 149.333z"/>
<path style="fill:#4a304b; stroke:none;" d="M432 150C435.488 154.948 438.828 158.077 445 157L445 158L423 158L426 164L408 165L408 166C418.033 169.3 423.495 169.335 434 168L434 169L429 174L474 196C474 189.761 475.848 180.074 473.397 174.289C468.227 162.089 444.156 152.1 432 150z"/>
<path style="fill:#fffcf2; stroke:none;" d="M435.667 150.333L436.333 150.667L435.667 150.333z"/>
<path style="fill:#c6bdbe; stroke:none;" d="M437.333 150.667L437.667 151.333L437.333 150.667z"/>
<path style="fill:#8e765e; stroke:none;" d="M438 150L438 151L443 152L443 151L438 150z"/>
<path style="fill:#a4736e; stroke:none;" d="M240 151L240 154L241 154L242 151L240 151z"/>
<path style="fill:#817287; stroke:none;" d="M292 151C294.357 157.914 290.694 160.917 288 167L291 165L292 169C296.062 163.569 301.695 152.098 292 151z"/>
<path style="fill:#fff8ed; stroke:none;" d="M438.667 151.333L439.333 151.667L438.667 151.333z"/>
<path style="fill:#b82f1d; stroke:none;" d="M269 159L278 152L269 159z"/>
<path style="fill:#f6f4f5; stroke:none;" d="M440 152L440 153L445 154L445 153L440 152z"/>
<path style="fill:#7e6c58; stroke:none;" d="M443.667 152.333L444.333 152.667L443.667 152.333z"/>
<path style="fill:#cbb0b7; stroke:none;" d="M445 152L444 155L448 155L448 154L445 152z"/>
<path style="fill:#2c080c; stroke:none;" d="M234 153L231 154L228 160L231 161L234 153z"/>
<path style="fill:#34243f; stroke:none;" d="M384 153L384 154L395 154L384 153z"/>
<path style="fill:#98999e; stroke:none;" d="M441 153L442 154L441 153z"/>
<path style="fill:#9d9884; stroke:none;" d="M446 153L446 154L457 158L446 153z"/>
<path style="fill:#b62b28; stroke:none;" d="M224 157L208 169L232 156L224 157z"/>
<path style="fill:#cb888f; stroke:none;" d="M234 155C235.085 159.389 235.481 163.297 239.619 165.926C247.284 170.796 250.062 161.709 248 156C241.578 159.054 240.092 156.909 234 155z"/>
<path style="fill:#211a2c; stroke:none;" d="M385 157L385 158L390 159L390 158L387 158L387 157L394 156L385 157z"/>
<path style="fill:#f99c8a; stroke:none;" d="M455 155L455 156L466 158L466 157L455 155z"/>
<path style="fill:#b587ab; stroke:none;" d="M233 156C228.427 163.934 228.357 172.149 230 181C233.141 180.054 234.069 179.292 234 176L246 172L246 171C239.421 168.097 235.394 163.288 235 156L233 156z"/>
<path style="fill:#787e62; stroke:none;" d="M266 156L267 157L266 156z"/>
<path style="fill:#a38c9c; stroke:none;" d="M314 156L314 157L317 159C317.951 156.493 316.348 156.294 314 156z"/>
<path style="fill:#3b334a; stroke:none;" d="M337 156L340 159L340 158L337 156z"/>
<path style="fill:#fff7e1; stroke:none;" d="M207 171L207 172C216.387 170.327 224.961 165.051 230 157L207 171z"/>
<path style="fill:#949680; stroke:none;" d="M265 157L266 158L265 157z"/>
<path style="fill:#827183; stroke:none;" d="M313 157L311 161L313 157z"/>
<path style="fill:#eacddf; stroke:none;" d="M314 157L314 158L316 161L317 161L317 157L314 157z"/>
<path style="fill:#2b1b35; stroke:none;" d="M340 157L340 158L348 158L340 157z"/>
<path style="fill:#ffffdc; stroke:none;" d="M454 157C457.418 162.812 467.464 170.29 474 172C473.271 162.747 461.91 158.655 454 157z"/>
<path style="fill:#5c3e24; stroke:none;" d="M457 157L457 158L460 158L457 157z"/>
<path style="fill:#7d8377; stroke:none;" d="M263 158L264 159L263 158z"/>
<path style="fill:#553c4f; stroke:none;" d="M314 158L314 160L316 160L316 158L314 158z"/>
<path style="fill:#683c57; stroke:none;" d="M321 158L320 162L312 163L307 166L308 162L307 162C296.109 177.416 285.857 188.087 285 208L286 208C294.708 195.561 306.831 185.785 315.135 173C317.782 168.925 322.368 162.991 321 158z"/>
<path style="fill:#221300; stroke:none;" d="M460 158L460 159L463 159L460 158z"/>
<path style="fill:#998763; stroke:none;" d="M463 158L464 159L463 158z"/>
<path style="fill:#ffefd1; stroke:none;" d="M464 158L464 159L474 165C473.101 159.771 468.862 158.498 464 158z"/>
<path style="fill:#746c5f; stroke:none;" d="M261 159L262 160L261 159z"/>
<path style="fill:#8e9796; stroke:none;" d="M455 159L456 160L455 159z"/>
<path style="fill:#8d8d69; stroke:none;" d="M462 159L463 160L462 159z"/>
<path style="fill:#111f00; stroke:none;" d="M463.667 159.333L464.333 159.667L463.667 159.333z"/>
<path style="fill:#909a68; stroke:none;" d="M465 159L466 160L465 159z"/>
<path style="fill:#773924; stroke:none;" d="M219 162L219 163L224 161L219 162z"/>
<path style="fill:#5d294d; stroke:none;" d="M227 160C220.741 168.672 206.088 174.075 196 177L193.129 193.09L196 207L200 207L198 210L237 194L233 190L210 201L212 199L212 198C209.558 193.233 214.321 188.129 219 187C222.926 183.393 225.317 186.629 226 191L232 182L232 181L229 160L227 160z"/>
<path style="fill:#470103; stroke:none;" d="M280 160L272 172C275.746 169.222 281.999 165.19 280 160z"/>
<path style="fill:#f5e0f3; stroke:none;" d="M313 160L314 161L313 160z"/>
<path style="fill:#af96ab; stroke:none;" d="M314 160L311 162L311 163L316 160L314 160z"/>
<path style="fill:#7c7958; stroke:none;" d="M464 160L465 161L464 160z"/>
<path style="fill:#473c1e; stroke:none;" d="M465 160L474 167L465 160z"/>
<path style="fill:#613f24; stroke:none;" d="M250 165L254 163C251.303 162.146 250.614 162.149 250 165z"/>
<path style="fill:#8d7c60; stroke:none;" d="M255 162L256 163L255 162z"/>
<path style="fill:#0f0000; stroke:none;" d="M249 164L243 168C246.236 169.605 249.836 167.89 249 164z"/>
<path style="fill:#41233b; stroke:none;" d="M307 165L307 166L311 166L307 165z"/>
<path style="fill:#9c8d90; stroke:none;" d="M462 164L463 165L462 164z"/>
<path style="fill:#713b23; stroke:none;" d="M203 172L203 173L216 166L203 172z"/>
<path style="fill:#956380; stroke:none;" d="M238 165L242 168L238 165z"/>
<path style="fill:#684740; stroke:none;" d="M246 165L246 167L248 165L246 165z"/>
<path style="fill:#b3869d; stroke:none;" d="M290 165C282.649 171.524 279.446 183.246 279 193L280 193L282 187L283 187L282 194L283 195C287.917 189.079 294.188 172.037 290 165z"/>
<path style="fill:#a81f15; stroke:none;" d="M254 167L254 172L255 172L256 167L254 167z"/>
<path style="fill:#a0978e; stroke:none;" d="M466 167L467 168L466 167z"/>
<path style="fill:#3e172a; stroke:none;" d="M241 168L241 169L245 170L245 169L241 168z"/>
<path style="fill:#514e47; stroke:none;" d="M244 170L244 171L248 172L249 168L244 170z"/>
<path style="fill:#5c4356; stroke:none;" d="M284 169L284 171L286 169L284 169z"/>
<path style="fill:#b13442; stroke:none;" d="M198 173L198 174L204 174L198 173z"/>
<path style="fill:#c08d9c; stroke:none;" d="M204 173L204 174L208 173L204 173z"/>
<path style="fill:#ab9598; stroke:none;" d="M472.667 172.333L473.333 172.667L472.667 172.333z"/>
<path style="fill:#b93435; stroke:none;" d="M251 173C245.473 186.121 262.157 185.085 263 174L259 175C258.534 179.167 255.883 180.244 252 181L253 173L251 173z"/>
<path style="fill:#871d21; stroke:none;" d="M194 179L202 175C198.074 173.532 195.76 175.51 194 179z"/>
<path style="fill:#d49bac; stroke:none;" d="M202.667 174.333L203.333 174.667L202.667 174.333z"/>
<path style="fill:#5e495a; stroke:none;" d="M234 177L240 175L234 177z"/>
<path style="fill:#b31a08; stroke:none;" d="M263 174L265 178L267 176L267 175L263 174z"/>
<path style="fill:#776774; stroke:none;" d="M282 174L282 179L283 179L282 174z"/>
<path style="fill:#8b5b67; stroke:none;" d="M200.667 175.333L201.333 175.667L200.667 175.333z"/>
<path style="fill:#5e0000; stroke:none;" d="M264 176L264 177L269 176L264 176z"/>
<path style="fill:#7c7950; stroke:none;" d="M244.333 176.667L244.667 177.333L244.333 176.667z"/>
<path style="fill:#a02b3e; stroke:none;" d="M187 179L187 180C190.439 180.567 192.116 179.981 194 177L187 179z"/>
<path style="fill:#f9e5da; stroke:none;" d="M265 177L261 181L265 177z"/>
<path style="fill:#64514d; stroke:none;" d="M266.333 177.667L266.667 178.333L266.333 177.667z"/>
<path style="fill:#081736; stroke:none;" d="M164 204C164.308 208.135 160.848 215.152 163.043 218.567C164.679 221.112 169.331 221.757 172 222.691C184.619 227.104 198.232 225.12 206 214C203.267 212.281 203.274 211.104 204 208L198 210L200 207L196 207L193.13 194.039L197 178L173.634 194.491L164 204z"/>
<path style="fill:#5f5f79; stroke:none;" d="M191 181L194 179L191 181z"/>
<path style="fill:#7e7a71; stroke:none;" d="M265 179L266 180L265 179z"/>
<path style="fill:#998a77; stroke:none;" d="M243.333 180.667L243.667 181.333L243.333 180.667z"/>
<path style="fill:#ac2e3c; stroke:none;" d="M177 189L188 184L188 181L177 189z"/>
<path style="fill:#915684; stroke:none;" d="M187 182L187 183L191 182L187 182z"/>
<path style="fill:#ba6057; stroke:none;" d="M259 181L253 183L253 184C255.827 184.59 259.14 184.538 259 181z"/>
<path style="fill:#bfa8a2; stroke:none;" d="M260.667 181.333L261.333 181.667L260.667 181.333z"/>
<path style="fill:#894c49; stroke:none;" d="M397 181L397 182L402 182L397 181z"/>
<path style="fill:#cf6152; stroke:none;" d="M389 182L389 183L408 182L389 182z"/>
<path style="fill:#5c5449; stroke:none;" d="M242.333 182.667L242.667 183.333L242.333 182.667z"/>
<path style="fill:#955238; stroke:none;" d="M248 182L252 185L248 182z"/>
<path style="fill:#a02633; stroke:none;" d="M403 182L403 183L421 185C417.232 180.521 408.366 182 403 182z"/>
<path style="fill:#c6b58a; stroke:none;" d="M245 183L246 185L247 185L248 183L245 183z"/>
<path style="fill:#e59f93; stroke:none;" d="M251 183L253 186L251 183z"/>
<path style="fill:#fb939a; stroke:none;" d="M381 183L381 184L390 184L381 183z"/>
<path style="fill:#c2171f; stroke:none;" d="M383 239L386 242L390 241L390 244L393 245L393 252L396 251C397.351 254.723 401.015 255.84 403.961 258.325C418.191 270.332 438.899 266 457 266C460.099 254.214 459.952 253.557 453 243L457 243C460.279 248.925 467.191 253.783 474 254L473.682 219.184L468 210L460 205C457.381 206.413 456.189 204.299 455 202L452 203L443 190C435.492 185.709 428.038 184.704 419.611 184.167C416.014 183.938 411.98 181.427 411 186L408 186L408 183L382.434 185.318L378.104 199L383 239z"/>
<path style="fill:#b80300; stroke:none;" d="M408 183L408 186L411 186L411 183L408 183z"/>
<path style="fill:#7e0d0f; stroke:none;" d="M219 187C213.818 187.638 212.16 191.111 212 196L220 189L221 189L221 192L226 186C222.849 184.399 221.053 183.875 219 187z"/>
<path style="fill:#725e55; stroke:none;" d="M243 187L246 184L243 187z"/>
<path style="fill:#fff0d0; stroke:none;" d="M247 184C248.806 187.249 250.383 187.599 254 187L254 186L247 184z"/>
<path style="fill:#5f493b; stroke:none;" d="M253 186L256 184L253 186z"/>
<path style="fill:#88707e; stroke:none;" d="M310 188L310 189L320 189C321.116 181.72 313.531 185.95 310 188z"/>
<path style="fill:#8c926c; stroke:none;" d="M376 184L376 185L379 185L376 184z"/>
<path style="fill:#fff4ba; stroke:none;" d="M411 266C405.541 255.502 392.364 250.045 384.572 241.606C380.996 237.734 380.501 230.974 379.725 226C377.855 214.012 373.699 194.924 383 185C371.725 180.996 372.283 203.701 373.385 210C375.018 219.328 372.82 232.299 378.164 240.671C382.487 247.441 391.605 252.572 397.985 257.174C402.468 260.406 405.274 265.168 411 266z"/>
<path style="fill:#42131b; stroke:none;" d="M230 185L226 191L226 187L225 187C223.487 189.614 212.585 197.388 212 193L211 193L212 198L212 199L210 201L232 190L230 185z"/>
<path style="fill:#8e977a; stroke:none;" d="M375.333 185.667L375.667 186.333L375.333 185.667z"/>
<path style="fill:#350e21; stroke:none;" d="M176 193L183 186L176 193z"/>
<path style="fill:#b4b4ac; stroke:none;" d="M241 186L240 190L241 186z"/>
<path style="fill:#fffbfb; stroke:none;" d="M309 190L309 191L318 193L319 186L309 190z"/>
<path style="fill:#aa6a7a; stroke:none;" d="M224.333 187.667L224.667 188.333L224.333 187.667z"/>
<path style="fill:#a77189; stroke:none;" d="M282 187C277.867 196.837 278 205.475 278 216L279 216C280.378 210.406 285.106 198.901 282 194L282 193L282 187z"/>
<path style="fill:#4a5841; stroke:none;" d="M249.667 188.333L250.333 188.667L249.667 188.333z"/>
<path style="fill:#8b8585; stroke:none;" d="M316 188L315 191L316 188z"/>
<path style="fill:#ac0005; stroke:none;" d="M381 188L381 191L383 191L383 188L381 188z"/>
<path style="fill:#ba5f70; stroke:none;" d="M220.333 189.667L220.667 190.333L220.333 189.667z"/>
<path style="fill:#a87e92; stroke:none;" d="M318 189L320 193L321 199L322 199L322 195L323 195L323 198L327 197C325.877 193.384 324.554 192.796 321 194L318 189z"/>
<path style="fill:#4f4d41; stroke:none;" d="M374 190L374 193L375 193L374 190z"/>
<path style="fill:#782a40; stroke:none;" d="M303 191C299.146 197.303 296.236 202.506 298 210C290.824 211.348 292.681 218.475 292.961 224C293.511 234.847 308.064 248.663 316 256L324 219L311 224L311 223C321.167 218.766 332.472 209.504 327 197L325 197L318 212L318 207C306.772 213.175 308.012 206.511 310 198L309 198L306 204L305 204L310 195L306 199L304 199L306 193L303 191z"/>
<path style="fill:#c9a0ae; stroke:none;" d="M304 199L306 199L311 192C305.949 191.602 303.139 193.86 304 199z"/>
<path style="fill:#a52c35; stroke:none;" d="M442 191L452 203L455 202L460 207C456.992 200.839 448.583 192.848 442 191z"/>
<path style="fill:#795466; stroke:none;" d="M278 192L278 196L279 196L278 192z"/>
<path style="fill:#4c373c; stroke:none;" d="M310 194L313 194L312 192L310 194z"/>
<path style="fill:#b2b3ae; stroke:none;" d="M312 192L312 193L316 193L312 192z"/>
<path style="fill:#171a13; stroke:none;" d="M313 193L313 194L320 195L313 193z"/>
<path style="fill:#ff5a5e; stroke:none;" d="M18 194L20 197L18 194z"/>
<path style="fill:#802824; stroke:none;" d="M172 194L170 200L171 200L172 194z"/>
<path style="fill:#160000; stroke:none;" d="M309 194L310 195L309 194z"/>
<path style="fill:#fbedec; stroke:none;" d="M308 199L320 197C315.534 193.116 310.395 193.284 308 199z"/>
<path style="fill:#7f7e79; stroke:none;" d="M316 194L316 195L319 195L316 194z"/>
<path style="fill:#442232; stroke:none;" d="M324 194L324 196L326 196L324 194z"/>
<path style="fill:#070001; stroke:none;" d="M322 195L322 198L323 198L322 195z"/>
<path style="fill:#9c7f84; stroke:none;" d="M311 196L311 197L314 197L311 196z"/>
<path style="fill:#fd5e58; stroke:none;" d="M20 197L29 209L20 197z"/>
<path style="fill:#9a707c; stroke:none;" d="M310 197L311 198L310 197z"/>
<path style="fill:#363833; stroke:none;" d="M311 197L311 198L321 199L311 197z"/>
<path style="fill:#b90207; stroke:none;" d="M392 197L393 200L395 200L396 197L392 197z"/>
<path style="fill:#ce9eae; stroke:none;" d="M307 198L305 204L306 204L307 198z"/>
<path style="fill:#1f0000; stroke:none;" d="M310 198L311 199L310 198z"/>
<path style="fill:#f0c5cf; stroke:none;" d="M308 205C312.343 201.874 314.666 201.028 320 202C318.392 194.498 308.962 198.973 308 205z"/>
<path style="fill:#8a6d71; stroke:none;" d="M315 198L315 199L318 199L315 198z"/>
<path style="fill:#665355; stroke:none;" d="M322 198C320.446 200.21 320.726 200.586 323 202L322 198z"/>
<path style="fill:#904762; stroke:none;" d="M323 198L323 202L320 201L318 212C322.666 209.489 324.953 203.005 323 198z"/>
<path style="fill:#74675f; stroke:none;" d="M372.333 198.667L372.667 199.333L372.333 198.667z"/>
<path style="fill:#cd8555; stroke:none;" d="M377 199L377 208L378 208L377 199z"/>
<path style="fill:#604151; stroke:none;" d="M277 200L277 215L278 215L277 200z"/>
<path style="fill:#503846; stroke:none;" d="M282.333 200.667L282.667 201.333L282.333 200.667z"/>
<path style="fill:#a80f07; stroke:none;" d="M445 200L444 204C447.021 203.349 447.086 202.086 445 200z"/>
<path style="fill:#4d1224; stroke:none;" d="M307 210L308 210C311.062 204.765 313.988 203.071 320 203C313.482 198.547 308.555 203.389 307 210z"/>
<path style="fill:#b04348; stroke:none;" d="M165 205L168 203L165 205z"/>
<path style="fill:#df9fb0; stroke:none;" d="M310 207L317 208L319 203C314.84 203.049 312.112 203.17 310 207z"/>
<path style="fill:#573848; stroke:none;" d="M281.333 204.667L281.667 205.333L281.333 204.667z"/>
<path style="fill:#c4a0ac; stroke:none;" d="M307 204L306 208L309 205L307 204z"/>
<path style="fill:#5e2a36; stroke:none;" d="M318.333 205.667L318.667 206.333L318.333 205.667z"/>
<path style="fill:#898c6d; stroke:none;" d="M372 205L372 208L373 208L372 205z"/>
<path style="fill:#bd8399; stroke:none;" d="M308 210L316 207C312.291 207.019 310.039 206.563 308 210z"/>
<path style="fill:#8a2e2f; stroke:none;" d="M164 207L162 214L163 214L164 207z"/>
<path style="fill:#352d3c; stroke:none;" d="M203 214L212 207L203 214z"/>
<path style="fill:#fa6e6d; stroke:none;" d="M94 210L97 208L94 210z"/>
<path style="fill:#5a160b; stroke:none;" d="M464 208L467 210L464 208z"/>
<path style="fill:#ff6c68; stroke:none;" d="M88 213L88 214L94 210L88 213z"/>
<path style="fill:#b5b792; stroke:none;" d="M373 210L373 216L374 216L373 210z"/>
<path style="fill:#991c24; stroke:none;" d="M468 211L474 217C473.342 213.17 471.63 212.113 468 211z"/>
<path style="fill:#f4ac84; stroke:none;" d="M378 213L378 220L379 220L378 213z"/>
<path style="fill:#711720; stroke:none;" d="M161 214L160 222L172 223L172 222C166.26 220.494 163.807 219.262 161 214z"/>
<path style="fill:#453224; stroke:none;" d="M372 214L372 227L373 227L372 214z"/>
<path style="fill:#765f57; stroke:none;" d="M373 216L373 235L374 235C376.098 229.491 375.294 221.417 373 216z"/>
<path style="fill:#ff5d67; stroke:none;" d="M34 217L36 220L34 217z"/>
<path style="fill:#290000; stroke:none;" d="M242 222C252.314 220.945 259.91 216.449 270 222C267.683 214.367 245.84 215.906 242 222z"/>
<path style="fill:#b50303; stroke:none;" d="M94 218L94 220L97 220L97 218L94 218z"/>
<path style="fill:#aa341a; stroke:none;" d="M34 219L35 228L40 228L34 219z"/>
<path style="fill:#822834; stroke:none;" d="M250 219L250 220L259 220L250 219z"/>
<path style="fill:#c13536; stroke:none;" d="M220 228L220 229L228 229L228 230L208 231L208 232L237 232L236 230L246 229L246 228L229 229L229 228L240 228L240 227L238 225L268 223C266.045 217.11 259.905 219.549 255 219.911C242.994 220.797 232.283 227.473 220 228z"/>
<path style="fill:#ff857f; stroke:none;" d="M36 220L38 224L36 220z"/>
<path style="fill:#d62326; stroke:none;" d="M141 220L141 222L145 222L145 226L134 221L131 225L131 227L136 231L124 226L126 236L130 239L134 238L127 240C127.192 244.939 125.816 246.717 121 248C119.168 243.718 114.874 241.634 112 246L115 236L105 237L108 240L108 244L106 241L98 239L95 243L97 236L91 243L84 241L88 244L85 251L78 250L74 247C72.9639 250.153 70.6138 253.06 75 254L75 255L68 255L69 261C63.4774 266.241 76.4189 266 79 266L121 266L286 266L284 261L287 263C285.99 260.079 285.219 257.845 282 259L271 226L236 230L237 232L196.039 233.61L184 233L183 229L188 226L188 225L170 223L170 224L174 225L174 226L168 228L169 225L164 222L163 222L163 226L152 221L155 224L141 220z"/>
<path style="fill:#bf5e3b; stroke:none;" d="M379 220L379 225L380 225L379 220z"/>
<path style="fill:#a30010; stroke:none;" d="M253 221L253 222L259 223L253 221z"/>
<path style="fill:#560300; stroke:none;" d="M268 221L259 222L261 225L250 226L250 227L270 225L268 221z"/>
<path style="fill:#b60000; stroke:none;" d="M110 222L112 225L112 222L110 222z"/>
<path style="fill:#ab0712; stroke:none;" d="M164 225L169 225L168 228L174 226C170.827 223.71 166.792 221.326 164 225z"/>
<path style="fill:#8a1f29; stroke:none;" d="M240 223L240 224L245 223L240 223z"/>
<path style="fill:#e7233b; stroke:none;" d="M238 225L238 227L250 228L259 224C252.264 219.398 245.122 224.359 238 225z"/>
<path style="fill:#690811; stroke:none;" d="M285 230L283 232L282 226L286 228L286 222C274.441 223.347 284.325 235.451 285 230z"/>
<path style="fill:#ffd1ca; stroke:none;" d="M38 223L43 234L46 230L38 223z"/>
<path style="fill:#ab3028; stroke:none;" d="M67 223L68 226C59.7801 229.032 54.9819 233.777 46 231C53.2357 239.193 63.7071 230.044 71 226L71 224L67 223z"/>
<path style="fill:#b3444a; stroke:none;" d="M257 224L257 225L261 225L257 224z"/>
<path style="fill:#c29194; stroke:none;" d="M285 223L286 226L287 226L287 223L285 223z"/>
<path style="fill:#960912; stroke:none;" d="M287 223L286 228L282 226L283 232L287 231L287 223z"/>
<path style="fill:#955166; stroke:none;" d="M185 224L185 225L192 225L185 224z"/>
<path style="fill:#a71e0c; stroke:none;" d="M380 224C380.449 234.448 381.729 243.32 393 246L393 245L390 244L390 241L386 242L383 239L382 224L380 224z"/>
<path style="fill:#bf696c; stroke:none;" d="M266 225L266 226L271 226L266 225z"/>
<path style="fill:#ff6d6b; stroke:none;" d="M68 229L71 226L68 229z"/>
<path style="fill:#921e31; stroke:none;" d="M228 226L228 227L232 227L228 226z"/>
<path style="fill:#df776c; stroke:none;" d="M246 228L246 229L265 228L246 228z"/>
<path style="fill:#fe9194; stroke:none;" d="M261 226L261 227L267 227L261 226z"/>
<path style="fill:#84283d; stroke:none;" d="M359 226C350.462 238.957 346 250.584 346 266L393 266C383.621 249.367 366.982 263.701 355 259C365.265 253.41 367.736 247.514 380 249C376.915 242.836 369.477 240.115 363 239C363.67 233.579 364.421 228.918 359 226z"/>
<path style="fill:#9b2120; stroke:none;" d="M229 228L229 229L248 228L229 228z"/>
<path style="fill:#7c0000; stroke:none;" d="M265.667 227.333L266.333 227.667L265.667 227.333z"/>
<path style="fill:#860000; stroke:none;" d="M39 228L41 231L39 228z"/>
<path style="fill:#fff9f7; stroke:none;" d="M45 232L44 233C46.8179 244.118 34.9431 247.234 29 255L48.9606 246.083L62 257L55.8781 242L68 228C58.8472 231.331 54.8009 235.452 45 232z"/>
<path style="fill:#a43845; stroke:none;" d="M186 228L185 229L191 233L186 228z"/>
<path style="fill:#982d33; stroke:none;" d="M199 230L199 231L228 230C219.73 226.498 207.443 227.481 199 230z"/>
<path style="fill:#af2e32; stroke:none;" d="M58 238C62.5841 237.781 66.7196 232.841 69 229L58 238z"/>
<path style="fill:#95030d; stroke:none;" d="M183 229L184 233L187 232L183 229z"/>
<path style="fill:#612436; stroke:none;" d="M363 229L363 239L372 240L363 229z"/>
<path style="fill:#d28861; stroke:none;" d="M380 229L380 232L381 232L380 229z"/>
<path style="fill:#ba0002; stroke:none;" d="M140 230L143 233L142 230L140 230z"/>
<path style="fill:#dc6b6f; stroke:none;" d="M198 231L198 232L208 232L198 231z"/>
<path style="fill:#b60110; stroke:none;" d="M267 231L266 232L266 233L266 234L269 231L267 231z"/>
<path style="fill:#ffd2be; stroke:none;" d="M195 233L195 234L201 233L195 233z"/>
<path style="fill:#3f250e; stroke:none;" d="M375 232L375 236L376 236L375 232z"/>
<path style="fill:#5e1816; stroke:none;" d="M189 233L189 234L193 235L189 233z"/>
<path style="fill:#e6d9c8; stroke:none;" d="M374 233L375 241L376 241L374 233z"/>
<path style="fill:#7d6b45; stroke:none;" d="M376 235L375 238L376 235z"/>
<path style="fill:#feacb8; stroke:none;" d="M45 237L45 241L46 241L45 237z"/>
<path style="fill:#4a492a; stroke:none;" d="M376 237L378 241L376 237z"/>
<path style="fill:#c1040b; stroke:none;" d="M116 238L119 241L118 238L116 238z"/>
<path style="fill:#cc4a56; stroke:none;" d="M55.3333 240.667L55.6667 241.333L55.3333 240.667z"/>
<path style="fill:#b40004; stroke:none;" d="M260 240L263 243L264 240L260 240z"/>
<path style="fill:#7e7669; stroke:none;" d="M375.667 241.333L376.333 241.667L375.667 241.333z"/>
<path style="fill:#993c37; stroke:none;" d="M40 245L43 242L40 245z"/>
<path style="fill:#ecb2b0; stroke:none;" d="M55 242L55 245L56 245L55 242z"/>
<path style="fill:#fe635f; stroke:none;" d="M190 242L192 247L193 247L190 242z"/>
<path style="fill:#c90000; stroke:none;" d="M16 243L16 246L19 246L19 243L16 243z"/>
<path style="fill:#8b1f00; stroke:none;" d="M453 243L459 250L453 243z"/>
<path style="fill:#d09547; stroke:none;" d="M456 243L460 250L456 243z"/>
<path style="fill:#df2846; stroke:none;" d="M466 244L466 247L469 247L469 244L466 244z"/>
<path style="fill:#cb7a81; stroke:none;" d="M46 245L46 246L50 246L46 245z"/>
<path style="fill:#a93624; stroke:none;" d="M201 245L196 248L196 249L205 247L201 245z"/>
<path style="fill:#817859; stroke:none;" d="M385.333 245.667L385.667 246.333L385.333 245.667z"/>
<path style="fill:#e6231f; stroke:none;" d="M37 250L43 252L42 250L50 247L37 250z"/>
<path style="fill:#a03515; stroke:none;" d="M49 246L42 250L43 252L40 253L40 254L50 251L50 252L44 259L45 259L55 251L49 246z"/>
<path style="fill:#930b23; stroke:none;" d="M58 246L59 251L60 251L58 246z"/>
<path style="fill:#982513; stroke:none;" d="M191 246L191 255C195.547 252.466 194.528 249.127 191 246z"/>
<path style="fill:#ffae99; stroke:none;" d="M193 246L197 250L193 246z"/>
<path style="fill:#3c0000; stroke:none;" d="M276 246L282 259L283 259L278 246L276 246z"/>
<path style="fill:#635c28; stroke:none;" d="M386 246L386 251L387 251L386 246z"/>
<path style="fill:#e09d73; stroke:none;" d="M31 247L34 251L31 247z"/>
<path style="fill:#ffa090; stroke:none;" d="M202 250L205 247L202 250z"/>
<path style="fill:#85755c; stroke:none;" d="M384 247L385 248L384 247z"/>
<path style="fill:#fff2cd; stroke:none;" d="M385 247C381.937 251.877 383.184 255.091 389 256L385 247z"/>
<path style="fill:#b50005; stroke:none;" d="M176 248L176 251L179 251L179 248L176 248z"/>
<path style="fill:#613500; stroke:none;" d="M461 248C463.23 252.74 466.579 255.999 472 255L472 254L461 248z"/>
<path style="fill:#fee3b4; stroke:none;" d="M195 250L194 255L200 256L202 249L195 250z"/>
<path style="fill:#70e90e; stroke:none;" d="M460 249L464 258L471 257L470 263C466.108 262.394 463.195 262.52 461 266L473 266L474 254C467.605 255.645 465.05 252.511 460 249z"/>
<path style="fill:#6e7049; stroke:none;" d="M382 250L383 251L382 250z"/>
<path style="fill:#0d2000; stroke:none;" d="M387 250L388 254L389 254L387 250z"/>
<path style="fill:#763900; stroke:none;" d="M459 250L457 266C463.461 262.246 464.533 255.113 459 250z"/>
<path style="fill:#5d7922; stroke:none;" d="M35 251L35 253L38 253L38 251L35 251z"/>
<path style="fill:#cfb24c; stroke:none;" d="M45 255L50 252L45 255z"/>
<path style="fill:#d92629; stroke:none;" d="M62 266L58 263L59 261L59 260L56 261L55 251C50.8604 252.114 39.4782 259.864 45.7431 264.972C49.0597 267.677 57.9083 266 62 266z"/>
<path style="fill:#bf181f; stroke:none;" d="M55 251L56 261L59 260L58 263L66 266L55 251z"/>
<path style="fill:#7b1801; stroke:none;" d="M394 251L394 253L396 253L396 251L394 251z"/>
<path style="fill:#d12135; stroke:none;" d="M450 251L446 257L450 257L452 251L450 251z"/>
<path style="fill:#a1c070; stroke:none;" d="M33 252L36 254L33 252z"/>
<path style="fill:#c0070c; stroke:none;" d="M65 255L68 252L65 255z"/>
<path style="fill:#a1230d; stroke:none;" d="M200 252C200.707 255.397 201.405 257.064 205 257L200 252z"/>
<path style="fill:#665300; stroke:none;" d="M33 253L33 261L34 261L33 253z"/>
<path style="fill:#6aed15; stroke:none;" d="M36 253L36 257L41 257L39 261L43 256L36 253z"/>
<path style="fill:#655b00; stroke:none;" d="M38 253L38 254L42 255L42 254L38 253z"/>
<path style="fill:#92c350; stroke:none;" d="M40 255L40 256L44 257L45 253L40 255z"/>
<path style="fill:#666052; stroke:none;" d="M382 253L383 254L382 253z"/>
<path style="fill:#4b2815; stroke:none;" d="M388 255L393 256L388 255z"/>
<path style="fill:#68a114; stroke:none;" d="M35 254L35 259L36 259L35 254z"/>
<path style="fill:#ff9c8f; stroke:none;" d="M193 254L189 257L189 258L195 255L193 254z"/>
<path style="fill:#847d6b; stroke:none;" d="M383 254L384 255L383 254z"/>
<path style="fill:#847b5a; stroke:none;" d="M392 254L401 264L402 264L403 260L397 259L399 257L392 254z"/>
<path style="fill:#fb7d80; stroke:none;" d="M25 258L29 256L25 258z"/>
<path style="fill:#ffb2a1; stroke:none;" d="M200 255L202 261L203 261L200 255z"/>
<path style="fill:#61161b; stroke:none;" d="M290 255C288.806 259.194 289.186 261.66 293 264C293.979 259.942 293.113 257.748 290 255z"/>
<path style="fill:#cd8792; stroke:none;" d="M291 255L294 258L291 255z"/>
<path style="fill:#bca094; stroke:none;" d="M388 257L393 259L393 256L388 257z"/>
<path style="fill:#3af915; stroke:none;" d="M36 261L41 257C37.5582 256.862 36.593 257.598 36 261z"/>
<path style="fill:#ae1317; stroke:none;" d="M62 256L65 262L69 261L62 256z"/>
<path style="fill:#882037; stroke:none;" d="M294 256L294 266L296 266L296 256L294 256z"/>
<path style="fill:#410312; stroke:none;" d="M355 259L363 260L363 259L360 259L361 256L355 259z"/>
<path style="fill:#341501; stroke:none;" d="M393 256L394 257L393 256z"/>
<path style="fill:#90d336; stroke:none;" d="M463 256L459 266C463.067 263.798 464.843 260.428 463 256z"/>
<path style="fill:#ee4950; stroke:none;" d="M24 257L19 262L24 257z"/>
<path style="fill:#715e00; stroke:none;" d="M43 257L43 263L44 263L43 257z"/>
<path style="fill:#ffbbb2; stroke:none;" d="M61 257L65 262L61 257z"/>
<path style="fill:#f6d6c1; stroke:none;" d="M392 257L396 260L392 257z"/>
<path style="fill:#4ffa00; stroke:none;" d="M464 263L470 263L471 257C466.276 257.155 464.381 258.11 464 263z"/>
<path style="fill:#ecd1a6; stroke:none;" d="M397.667 258.333L398.333 258.667L397.667 258.333z"/>
<path style="fill:#7b6239; stroke:none;" d="M399 258L400 259L399 258z"/>
<path style="fill:#b80e17; stroke:none;" d="M24 259L24 263L25 263L24 259z"/>
<path style="fill:#b8bc4b; stroke:none;" d="M34 259L29 266C32.4559 264.957 35.2911 262.826 34 259z"/>
<path style="fill:#89d735; stroke:none;" d="M35 259L35 263L45 266L42 259L35 259z"/>
<path style="fill:#f1d9b3; stroke:none;" d="M399 259L400 260L399 259z"/>
<path style="fill:#3a6a00; stroke:none;" d="M472 259L473 266L474 266L474 259L472 259z"/>
<path style="fill:#ffe8cc; stroke:none;" d="M396 260L399 262L396 260z"/>
<path style="fill:#6d0000; stroke:none;" d="M284 261L286 266L287 266L284 261z"/>
<path style="fill:#c6b49e; stroke:none;" d="M399 261L399 263L401 263L399 261z"/>
<path style="fill:#3b4017; stroke:none;" d="M402.333 261.667L402.667 262.333L402.333 261.667z"/>
<path style="fill:#6d3d00; stroke:none;" d="M29 262L28 266L29 266L31 262L29 262z"/>
<path style="fill:#866d00; stroke:none;" d="M32 266L39 263C35.7376 262.045 33.7262 263.176 32 266z"/>
<path style="fill:#fc7572; stroke:none;" d="M65 262L68 266L65 262z"/>
<path style="fill:#4e3926; stroke:none;" d="M395 262L397 266L398 266L399 262L395 262z"/>
<path style="fill:#b7b288; stroke:none;" d="M403 262L403 266L407 266L403 262z"/>
<path style="fill:#b60a0a; stroke:none;" d="M9 263L9 266L12 266L12 263L9 263z"/>
<path style="fill:#e0220a; stroke:none;" d="M34 266C36.9934 265.936 38.3456 266.054 39 263L34 266z"/>
<path style="fill:#733000; stroke:none;" d="M39 263L41 266L39 263z"/>
<path style="fill:#9f4048; stroke:none;" d="M287 263L289 266L287 263z"/>
<path style="fill:#090300; stroke:none;" d="M398 263L398 264L402 266L398 263z"/>
<path style="fill:#f6fbd3; stroke:none;" d="M402 263L403 264L402 263z"/>
<path style="fill:#c3b5ac; stroke:none;" d="M398.333 264.667L398.667 265.333L398.333 264.667z"/>
<path style="fill:#483c2e; stroke:none;" d="M399.333 264.667L399.667 265.333L399.333 264.667z"/>
<path style="fill:#534e2e; stroke:none;" d="M402.333 264.667L402.667 265.333L402.333 264.667z"/>
<path style="fill:#ba6853; stroke:none;" d="M411.333 264.667L411.667 265.333L411.333 264.667z"/>
<path style="fill:#478100; stroke:none;" d="M464 264L464 266L468 266L468 264L464 264z"/>
</svg>
